<?xml version="1.0" encoding="UTF-8"?>
<svg version="1.1" xmlns="http://www.w3.org/2000/svg" width="1920" height="1920">
<path d="M0 0 C6.15760102 0.00459717 12.31519155 -0.0024946 18.47279036 -0.00795984 C29.79389924 -0.01627281 41.11498061 -0.01564683 52.43608874 -0.01013691 C62.90232029 -0.00506921 73.36854399 -0.00380923 83.83477652 -0.00618219 C84.88356544 -0.00641135 84.88356544 -0.00641135 85.95354202 -0.00664513 C88.79310193 -0.007268 91.63266183 -0.00790482 94.47222172 -0.00856466 C121.01170149 -0.0146579 147.55116762 -0.00917542 174.09064528 0.00162913 C197.57306052 0.01111652 221.05545405 0.01026908 244.5378691 0.00070715 C271.03296552 -0.01004594 297.52804994 -0.01422441 324.02314824 -0.00806832 C326.8572998 -0.00742707 329.69145137 -0.00680137 332.52560294 -0.00618219 C333.57206006 -0.00594496 333.57206006 -0.00594496 334.63965773 -0.00570294 C345.08827992 -0.00344588 355.53689332 -0.00605477 365.98551428 -0.0111413 C377.88922341 -0.01690795 389.79290706 -0.01514039 401.69661527 -0.00457981 C407.75093555 0.00061725 413.80521221 0.00283783 419.859532 -0.00387812 C493.74364919 -0.07892182 563.70109938 2.48849238 619.43459761 57.13644934 C629.54778456 67.31642305 637.95976714 78.92779656 645.24709761 91.26144934 C645.6207646 91.89357336 645.9944316 92.52569738 646.37942183 93.17697668 C670.39274895 134.51676413 672.42111035 182.3976787 672.38081038 229.02637243 C672.38268443 231.12335131 672.38498746 233.22032984 672.3876757 235.31730783 C672.39372703 241.01290669 672.39366808 246.70849074 672.39248133 252.40409207 C672.39227561 258.57350637 672.39781235 264.74291612 672.4025389 270.91232824 C672.41080985 282.97585522 672.41360518 295.03937598 672.41415127 307.10290505 C672.41461283 316.92186585 672.41668158 326.74082508 672.4198519 336.55978537 C672.42074961 339.39788067 672.42163942 342.23597598 672.42252678 345.07407129 C672.42274782 345.77987011 672.42296887 346.48566893 672.42319662 347.21285559 C672.42934211 367.03868025 672.43329809 386.86450437 672.43285334 406.69033003 C672.43283776 407.43622854 672.43282218 408.18212706 672.43280613 408.95062856 C672.43272304 412.73014386 672.432624 416.50965916 672.43252143 420.28917445 C672.43249151 421.41487143 672.43249151 421.41487143 672.43246099 422.56330975 C672.43242055 424.0809311 672.43237875 425.59855244 672.43233559 427.11617378 C672.43172364 450.69699447 672.43921825 474.27780074 672.45290816 497.85861731 C672.4683263 524.42648103 672.47687091 550.99433529 672.47594494 577.56220376 C672.47587032 580.40470004 672.47582161 583.24719632 672.47579062 586.08969259 C672.47577314 587.13932736 672.47577314 587.13932736 672.4757553 588.21016686 C672.47572475 599.38774602 672.48206371 610.5653125 672.49072288 621.74288791 C672.49927157 633.01235811 672.49996467 644.28181034 672.49361356 655.55128361 C672.49037924 661.6357635 672.49017773 667.72019826 672.49896681 673.80467367 C672.59888136 747.66128241 669.99472807 817.7412807 615.37209761 873.44894934 C605.18693231 883.56729381 593.57523826 891.9546753 581.24709761 899.26144934 C580.63092574 899.62979895 580.01475386 899.99814856 579.37991011 900.37766027 C538.17075732 924.61957516 490.08723259 926.43550038 443.52686751 926.39516211 C441.43472612 926.39703618 439.34258509 926.39933922 437.25044459 926.40202743 C431.5681779 926.40807854 425.88592608 926.40801983 420.20365691 926.40683305 C414.04853855 926.40662733 407.89342474 926.41216416 401.73830855 926.41689062 C389.70252004 926.42516157 377.66673777 926.42795691 365.63094717 926.428503 C355.83392479 926.42896458 346.03690398 926.43103345 336.23988211 926.43420362 C333.40798106 926.43510134 330.57608001 926.43599115 327.74417895 926.4368785 C327.03991549 926.43709955 326.33565204 926.4373206 325.61004726 926.43754835 C305.82709183 926.4436939 286.04413695 926.44764981 266.26118052 926.44720507 C265.14474486 926.4471817 265.14474486 926.4471817 264.00575495 926.44715786 C260.23440417 926.44707477 256.46305338 926.44697573 252.6917026 926.44687315 C251.56844183 926.44684323 251.56844183 926.44684323 250.42248892 926.44681271 C248.90815161 926.44677227 247.39381429 926.44673047 245.87947697 926.44668732 C222.35235279 926.44607544 198.82524305 926.45356867 175.298123 926.46725988 C148.78921333 926.4826804 122.28031315 926.49122248 95.77139872 926.49029666 C92.93478235 926.49022205 90.09816597 926.49017333 87.26154959 926.49014235 C86.56324366 926.49013069 85.86493772 926.49011904 85.145471 926.49010703 C73.99412464 926.49007648 62.84279101 926.49641372 51.69144841 926.50507461 C40.44660547 926.51362631 29.20178053 926.51431422 17.9569345 926.50796529 C11.88650754 926.50473241 5.81612581 926.50452398 -0.25429666 926.51331854 C-74.44954701 926.6139817 -144.95652613 924.27990762 -200.94040239 869.38644934 C-211.05874686 859.20128404 -219.44612835 847.58958998 -226.75290239 835.26144934 C-227.121252 834.64527746 -227.48960161 834.02910559 -227.86911333 833.39426184 C-251.96249639 792.43760026 -253.92653333 744.74038087 -253.88661516 698.45856237 C-253.88848919 696.3574587 -253.89079222 694.25635537 -253.89348048 692.15525258 C-253.89953201 686.44825215 -253.89947283 680.74126651 -253.8982861 675.03426361 C-253.89808039 668.85257926 -253.90361708 662.67089946 -253.90834367 656.48921728 C-253.91661474 644.40162684 -253.91940996 632.3140426 -253.91995605 620.22645007 C-253.9204176 610.38794312 -253.92248633 600.54943774 -253.92565668 590.7109313 C-253.92655439 587.86721901 -253.9274442 585.02350672 -253.92833155 582.17979443 C-253.9285526 581.4725994 -253.92877365 580.76540437 -253.9290014 580.03677918 C-253.93514691 560.17165868 -253.93910286 540.30653871 -253.93865812 520.44141722 C-253.93864254 519.69403584 -253.93862696 518.94665446 -253.93861091 518.17662517 C-253.93852782 514.38959332 -253.93842878 510.60256148 -253.9383262 506.81552963 C-253.93830626 506.06357204 -253.93828631 505.31161445 -253.93826576 504.53687027 C-253.93822532 503.01622984 -253.93818353 501.49558941 -253.93814037 499.97494897 C-253.93752842 476.34713564 -253.94502306 452.71933669 -253.95871294 429.09152746 C-253.97413092 402.47092603 -253.9826757 375.85033404 -253.98174971 349.22972786 C-253.9816751 346.38161461 -253.98162638 343.53350135 -253.9815954 340.68538809 C-253.98158374 339.98424843 -253.98157209 339.28310877 -253.98156008 338.56072245 C-253.98152953 327.36082731 -253.98786861 316.16094482 -253.99652766 304.96105342 C-254.00507615 293.66917742 -254.00576959 282.37732453 -253.99941834 271.08544527 C-253.99618392 264.98881381 -253.99598287 258.8922274 -254.00477159 252.79560041 C-254.1043803 179.01518997 -251.56230778 108.65912736 -196.87790239 53.07394934 C-143.61331215 0.09958981 -70.21500013 -0.07784503 0 0 Z " fill="#0C6FCC" transform="translate(750.7529023885727,496.7385506629944)"/>
<path d="M0 0 C1.03448776 -0.00299103 1.03448776 -0.00299103 2.08987427 -0.00604248 C16.43004977 -0.00134379 30.15104607 1.56971686 43.875 5.875 C44.9889917 6.22248291 46.1029834 6.56996582 47.25073242 6.92797852 C62.62498146 11.93208527 76.23905501 19.68844601 89.125 29.375 C90.42630859 30.34179688 90.42630859 30.34179688 91.75390625 31.328125 C114.28908508 48.67915471 126.54025828 72.11774169 135.625 98.6875 C135.93904785 99.59169678 136.2530957 100.49589355 136.57666016 101.42749023 C142.13055558 118.53756161 142.55225706 135.54787396 142.46557617 153.36767578 C142.46472817 155.83335357 142.46520842 158.29903212 142.46690369 160.76470947 C142.46758215 166.03555756 142.45919177 171.30630446 142.44219017 176.57712173 C142.41762613 184.19747236 142.40997729 191.81776936 142.4062262 199.43815528 C142.39968872 211.80694552 142.37980168 224.17567582 142.35131836 236.54443359 C142.32370728 248.5470348 142.30254285 260.54961953 142.28979492 272.55224609 C142.28899093 273.3017979 142.28818694 274.0513497 142.28735858 274.82361519 C142.28111893 280.6871281 142.27524864 286.55064136 142.26949489 292.41415477 C142.24128337 321.0678249 142.18090755 349.72134465 142.125 378.375 C104.835 378.375 67.545 378.375 29.125 378.375 C29.08632812 354.92244141 29.08632812 354.92244141 29.046875 330.99609375 C29.02170513 321.08397189 28.99553362 311.17186939 28.96484375 301.25976562 C28.91633033 285.53100728 28.87187612 269.80231333 28.85400391 254.07348633 C28.8409675 242.61710402 28.81395197 231.16085297 28.77038693 219.7045446 C28.74781703 213.64261042 28.73208665 207.58083788 28.73311615 201.51885796 C28.73386539 195.80359939 28.71580847 190.08869754 28.68383217 184.37353134 C28.67537052 182.28513658 28.6735576 180.19670164 28.67919731 178.10829735 C28.72721075 157.58166151 25.46500334 138.69352895 10.75 123.3125 C-3.05997256 110.54300482 -21.48809114 104.94073562 -40.125 105.0625 C-41.04104004 105.06813965 -41.95708008 105.0737793 -42.90087891 105.07958984 C-63.15032377 105.43896323 -80.89870432 112.39870432 -95.1796875 126.6796875 C-107.2472933 140.62551989 -114.01075186 159.75350989 -114.03321838 178.03097534 C-114.03815636 178.88956433 -114.04309434 179.74815333 -114.04818195 180.63276017 C-114.06350889 183.50240463 -114.07190453 186.3720268 -114.08032227 189.24169922 C-114.08990457 191.30167333 -114.09991485 193.36164549 -114.11032104 195.4216156 C-114.13733801 201.00991255 -114.15836496 206.59821792 -114.17832303 212.18654394 C-114.20020236 218.02819697 -114.22758153 223.86982414 -114.25437927 229.7114563 C-114.30427982 240.77164892 -114.34922845 251.83185591 -114.39240164 262.89207661 C-114.45103234 277.8390108 -114.51730506 292.78591097 -114.58315182 307.73281479 C-114.68668524 331.28018694 -114.78000186 354.82758829 -114.875 378.375 C-151.835 378.375 -188.795 378.375 -226.875 378.375 C-226.875 255.945 -226.875 133.515 -226.875 7.375 C-191.895 7.375 -156.915 7.375 -120.875 7.375 C-120.545 23.875 -120.215 40.375 -119.875 57.375 C-115.915 53.085 -111.955 48.795 -107.875 44.375 C-80.81140299 15.09307536 -39.18193391 0.02975969 0 0 Z " fill="#FDFEFE" transform="translate(1095.875,860.625)"/>
<path d="M0 0 C37.62 0 75.24 0 114 0 C114 122.1 114 244.2 114 370 C76.38 370 38.76 370 0 370 C0 247.9 0 125.8 0 0 Z " fill="#FEFEFE" transform="translate(691,868)"/>
<path d="M0 0 C3.50033459 2.49258129 6.76974936 5.16821778 10 8 C10.70125 8.59425781 11.4025 9.18851563 12.125 9.80078125 C22.65520916 19.40548375 29.83224762 34.3367129 30.56640625 48.55078125 C30.59388887 50.80452032 30.59195716 53.05878588 30.5625 55.3125 C30.55226807 56.49658447 30.54203613 57.68066895 30.53149414 58.90063477 C30.12350038 75.75551567 23.84427636 90.54568294 12.22265625 102.90625 C-1.67625585 115.99907405 -19.49358043 122.70786109 -38.5090332 122.39990234 C-55.73303533 121.7362286 -70.78281904 114.09481951 -82.95703125 102.06640625 C-95.04841173 88.97399645 -101.51350391 71.70365857 -101 54 C-100.98324219 52.98421875 -100.96648438 51.9684375 -100.94921875 50.921875 C-100.59318614 42.49916065 -98.50578296 35.63902138 -95 28 C-94.443125 26.77990234 -94.443125 26.77990234 -93.875 25.53515625 C-86.78609024 11.52963662 -72.94964487 -0.70349847 -58.21875 -6 C-55.8229209 -6.73284184 -53.43148085 -7.39754753 -51 -8 C-50.39124023 -8.17128418 -49.78248047 -8.34256836 -49.15527344 -8.51904297 C-33.10661668 -12.10035853 -13.79733787 -8.71289176 0 0 Z " fill="#FDFEFE" transform="translate(783,691)"/>
</svg>
