<?xml version="1.0" encoding="UTF-8"?>
<svg version="1.1" xmlns="http://www.w3.org/2000/svg" width="226" height="234">
<path d="M0 0 C74.58 0 149.16 0 226 0 C226 77.22 226 154.44 226 234 C151.42 234 76.84 234 0 234 C0 156.78 0 79.56 0 0 Z " fill="#222124" transform="translate(0,0)"/>
<path d="M0 0 C35.64 0 71.28 0 108 0 C105.82987456 1.62759408 103.65215544 3.2460364 101.4375 4.8125 C97.8647111 8.01884902 96.2758226 10.77323704 95.6796875 15.5859375 C95.41682549 21.98224632 96.13114153 25.87637662 100 31 C103.15604939 33.99824692 104.71461676 34.92865419 109 36 C109 38.97 109 41.94 109 45 C107.08537964 45.02187378 107.08537964 45.02187378 105.13208008 45.04418945 C100.38879621 45.1022354 95.64598393 45.17946828 90.90307617 45.26245117 C88.85172184 45.29567083 86.80027675 45.32371197 84.7487793 45.34643555 C81.79697051 45.3800357 78.84599114 45.43235476 75.89453125 45.48828125 C74.97976517 45.49467117 74.06499908 45.5010611 73.12251282 45.50764465 C68.18721684 45.62116977 65.10790008 45.9946705 61 49 C60.34 49 59.68 49 59 49 C57.58482184 52.11339195 56.99850805 53.95897147 57.125 57.4375 C56 61 56 61 53.48046875 62.53515625 C51.33371254 63.52779938 49.18112471 64.50790957 47.0234375 65.4765625 C41.56711321 68.22587319 38.58409921 72.24790588 36.125 77.75 C33.62695878 85.49841527 34.27317813 93.33536507 37.61328125 100.70703125 C41.57271542 107.2540393 47.08251361 110.55030367 54.3125 112.58984375 C54.869375 112.72519531 55.42625 112.86054687 56 113 C56.0928125 114.794375 56.0928125 114.794375 56.1875 116.625 C56.76851804 121.4354876 58.61304541 123.61304541 62 127 C64.3511843 128.17559215 65.82717914 128.15516463 68.44970703 128.20532227 C69.37051056 128.22526749 70.29131409 128.24521271 71.24002075 128.26576233 C72.23589203 128.28247482 73.23176331 128.29918732 74.2578125 128.31640625 C75.78509476 128.3475779 75.78509476 128.3475779 77.3432312 128.37937927 C80.60375055 128.44489466 83.86435206 128.50376902 87.125 128.5625 C89.33203983 128.60568332 91.53907128 128.64929755 93.74609375 128.69335938 C99.16397775 128.8005781 104.58194461 128.90183996 110 129 C110 132.3 110 135.6 110 139 C109.19369141 139.00410889 108.38738281 139.00821777 107.55664062 139.01245117 C103.87037064 139.04553444 100.18572086 139.11619885 96.5 139.1875 C94.59734375 139.19620117 94.59734375 139.19620117 92.65625 139.20507812 C83.55871538 139.36233757 83.55871538 139.36233757 75.6003418 143.30639648 C68.56031325 150.75669061 68.2347336 159.32140383 68.1875 169.125 C68.16236328 170.36765625 68.13722656 171.6103125 68.11132812 172.890625 C68.05292856 175.92740262 68.01630178 178.96275423 68 182 C67.18740723 182.05115967 66.37481445 182.10231934 65.53759766 182.1550293 C64.46558105 182.23148682 63.39356445 182.30794434 62.2890625 182.38671875 C61.22896973 182.45850342 60.16887695 182.53028809 59.07666016 182.60424805 C54.94192756 183.13610026 51.26841548 184.36012596 48 187 C46.25767293 189.9040588 45.75313816 192.03348678 45.77294922 195.40136719 C45.77319092 196.27390137 45.77343262 197.14643555 45.77368164 198.04541016 C45.78391357 198.95339355 45.79414551 199.86137695 45.8046875 200.796875 C45.80670166 201.63814941 45.80871582 202.47942383 45.81079102 203.34619141 C45.82123423 206.48084994 45.84915684 209.6154306 45.875 212.75 C45.91625 219.7625 45.9575 226.775 46 234 C30.82 234 15.64 234 0 234 C0 156.78 0 79.56 0 0 Z " fill="#FBFBFB" transform="translate(0,0)"/>
<path d="M0 0 C35.64 0 71.28 0 108 0 C108 77.22 108 154.44 108 234 C92.82 234 77.64 234 62 234 C62.33 233.34 62.66 232.68 63 232 C63.13576345 229.16507186 63.21275409 226.35596945 63.23828125 223.51953125 C63.25038887 222.25021004 63.25038887 222.25021004 63.26274109 220.95524597 C63.27658588 219.16053314 63.28730627 217.36579394 63.29516602 215.57104492 C63.31232427 212.84046603 63.35619894 210.11111531 63.40039062 207.38085938 C63.41052259 205.63542555 63.41903712 203.88998145 63.42578125 202.14453125 C63.45204338 200.92851982 63.45204338 200.92851982 63.47883606 199.6879425 C63.45728027 193.9863429 62.25043776 190.70447072 59 186 C55.61803856 183.32136683 51.41391913 183.56391126 47.25 183.375 C46.20392578 183.31699219 46.20392578 183.31699219 45.13671875 183.2578125 C43.42489182 183.16401376 41.71248318 183.08093826 40 183 C39.9906543 182.16339844 39.98130859 181.32679688 39.97167969 180.46484375 C39.9273582 177.32583985 39.86560805 174.18777132 39.79248047 171.04931641 C39.75076728 169.0370146 39.72871469 167.02433605 39.70703125 165.01171875 C39.49084888 156.40766029 38.97833825 150.08884765 32.75 143.6875 C25.29762038 139.11444887 18.56929327 138.5001879 10 138.3125 C8.93910156 138.27833984 7.87820312 138.24417969 6.78515625 138.20898438 C4.19020999 138.12716175 1.59557364 138.05780005 -1 138 C-1 135.03 -1 132.06 -1 129 C0.34223633 128.98018066 1.68447266 128.96036133 3.06738281 128.93994141 C8.04722862 128.86386968 13.02678283 128.77515442 18.00634766 128.68261719 C20.16156253 128.64433398 22.31684116 128.60947996 24.47216797 128.578125 C27.57021876 128.5324605 30.66783091 128.47446788 33.765625 128.4140625 C35.21113739 128.39673569 35.21113739 128.39673569 36.68585205 128.37905884 C37.58648376 128.35918915 38.48711548 128.33931946 39.41503906 128.31884766 C40.20557678 128.30552399 40.9961145 128.29220032 41.81060791 128.2784729 C44.26906712 127.96577685 45.89036225 127.28517955 48 126 C49.29274743 124.24705632 49.29274743 124.24705632 50.1875 122.1875 C50.51105469 121.52105469 50.83460938 120.85460937 51.16796875 120.16796875 C52.11247475 117.97104831 52.11247475 117.97104831 52.31640625 115.36328125 C53 113 53 113 55.109375 111.8125 C56.41648437 111.4103125 56.41648437 111.4103125 57.75 111 C65.43360469 108.24570643 69.27851563 103.05199568 73 96 C73.91666667 93.58333333 73.91666667 93.58333333 74 91 C74.08507812 90.37867187 74.17015625 89.75734375 74.2578125 89.1171875 C74.86023357 81.80955798 72.0075841 75.98579583 68 70 C63.47180835 65.24819395 58.16291336 62.98093644 52 61 C51.938125 59.783125 51.87625 58.56625 51.8125 57.3125 C51.25407958 52.80524945 49.59667892 50.84388566 46 48 C43.09609268 46.29270325 40.95567048 45.74039418 37.59863281 45.68115234 C36.3077475 45.65134781 36.3077475 45.65134781 34.99078369 45.62094116 C33.61089264 45.60361435 33.61089264 45.60361435 32.203125 45.5859375 C30.77996979 45.55688828 30.77996979 45.55688828 29.32806396 45.5272522 C26.30213367 45.46754341 23.27616516 45.42110567 20.25 45.375 C18.19659813 45.33681223 16.14321214 45.29776003 14.08984375 45.2578125 C9.06002504 45.16184892 4.03013135 45.07778554 -1 45 C-1 42.03 -1 39.06 -1 36 C0.051875 35.62875 1.10375 35.2575 2.1875 34.875 C7.26612193 32.68522982 9.96867773 29.10952282 12.375 24.1875 C13.47719429 18.56630914 12.92062564 13.91490132 10.4375 8.75 C7.75619378 5.72493657 5.10429533 3.95114463 1.609375 1.98046875 C1.07828125 1.65691406 0.5471875 1.33335938 0 1 C0 0.67 0 0.34 0 0 Z " fill="#FCFCFC" transform="translate(118,0)"/>
<path d="M0 0 C0.90270126 -0.00511093 1.80540253 -0.01022186 2.73545837 -0.01548767 C5.72409667 -0.02940608 8.71250499 -0.02842538 11.70117188 -0.02612305 C13.77478115 -0.03000838 15.84838963 -0.03434271 17.92199707 -0.03910828 C22.26980163 -0.04657507 26.61752499 -0.04627561 30.96533203 -0.04101562 C36.54431061 -0.03521659 42.12295767 -0.05216035 47.70188141 -0.0753603 C51.98433382 -0.09007145 56.26670588 -0.09097298 60.54917908 -0.08785057 C62.60652829 -0.08836498 64.66388187 -0.09362497 66.72120667 -0.10366249 C69.59430684 -0.11596056 72.4667545 -0.10927547 75.33984375 -0.09765625 C76.19396347 -0.10529999 77.04808319 -0.11294373 77.92808533 -0.12081909 C83.73460434 -0.0687566 83.73460434 -0.0687566 85.88806343 1.63007164 C87.81850338 4.10676914 87.55125948 6.13766995 87.55810547 9.24316406 C87.56756195 10.47131332 87.57701843 11.69946259 87.58676147 12.96482849 C87.58139117 14.30638959 87.57523806 15.64794774 87.56835938 16.98950195 C87.57038056 18.36568862 87.57329236 19.74187425 87.57705688 21.11805725 C87.58147971 24.00231117 87.57505189 26.88628631 87.56103516 29.77050781 C87.54395891 33.46395838 87.55377411 37.15675419 87.57175255 40.85018063 C87.5826055 43.69239717 87.57913693 46.53445912 87.57136917 49.37668037 C87.56937049 50.73821656 87.57181482 52.09976686 87.57880783 53.46128654 C87.58644441 55.36644083 87.57273687 57.27164441 87.55810547 59.17675781 C87.55571869 60.26025009 87.55333191 61.34374237 87.5508728 62.46006775 C87.09681294 65.81481098 86.81584827 67.12248594 84.16992188 69.2746582 C81.10721568 69.66586235 78.40370424 69.80081414 75.33984375 69.76049805 C74.43714249 69.76429474 73.53444122 69.76809143 72.60438538 69.77200317 C69.61546266 69.77942281 66.62750845 69.75800639 63.63867188 69.7355957 C61.56506464 69.73321202 59.49145522 69.7323058 57.41784668 69.7328186 C53.06993103 69.72968817 48.72234456 69.71310402 44.37451172 69.6862793 C38.79557172 69.65229921 33.2169937 69.64465058 27.63796234 69.64616966 C23.3554945 69.64562632 19.07310612 69.63466487 14.79066467 69.62016678 C12.73332826 69.61379327 10.67598283 69.60985859 8.61863708 69.60837936 C5.74560143 69.60405226 2.87295277 69.5865639 0 69.56518555 C-1.28117958 69.5665451 -1.28117958 69.5665451 -2.58824158 69.56793213 C-6.50841352 69.525188 -8.4951663 69.49793275 -11.83007812 67.2746582 C-12.21102905 64.57995605 -12.21102905 64.57995605 -12.21826172 61.11254883 C-12.2277182 59.8178064 -12.23717468 58.52306396 -12.24691772 57.18908691 C-12.24154821 55.76969091 -12.23539531 54.35029769 -12.22851562 52.9309082 C-12.23053567 51.48124037 -12.23344652 50.03157353 -12.23721313 48.58190918 C-12.24163983 45.54205664 -12.23519465 42.50246834 -12.22119141 39.46264648 C-12.20409894 35.56159686 -12.21393833 31.66116636 -12.2319088 27.76013947 C-12.24273754 24.76616735 -12.23930457 21.77234258 -12.23152542 18.77836609 C-12.22952087 17.33981758 -12.23199161 15.90125579 -12.23896408 14.46272278 C-12.24656272 12.45407356 -12.23293211 10.44537759 -12.21826172 8.43676758 C-12.21587494 7.29252319 -12.21348816 6.14827881 -12.21102905 4.96936035 C-12.08531525 4.08010864 -11.95960144 3.19085693 -11.83007812 2.2746582 C-7.90207423 -0.34401106 -4.55805043 -0.01322085 0 0 Z " fill="#8CC1E2" transform="translate(75.830078125,52.725341796875)"/>
<path d="M0 0 C1.11843796 -0.01929062 2.23687592 -0.03858124 3.38920593 -0.05845642 C8.51642001 -0.11612767 13.64354961 -0.16579867 18.77099609 -0.19628906 C21.47460704 -0.2140653 24.17716755 -0.24882033 26.88037109 -0.29882812 C30.77709172 -0.36579519 34.67236528 -0.39328698 38.56958008 -0.41235352 C39.77398239 -0.44018417 40.9783847 -0.46801483 42.21928406 -0.49668884 C51.59804623 -0.47374628 51.59804623 -0.47374628 55.90673828 3.12255859 C59.75001229 7.02515054 59.77451488 9.67887584 59.76513672 15.13696289 C59.76528275 15.84926559 59.76542877 16.5615683 59.76557922 17.29545593 C59.76488143 19.6546023 59.75709529 22.01367013 59.74926758 24.37280273 C59.74740292 26.00662188 59.74597924 27.64044158 59.74497986 29.27426147 C59.74115842 33.57822203 59.73133131 37.88214894 59.72027588 42.18609619 C59.71005375 46.57645207 59.70548052 50.96681339 59.70043945 55.35717773 C59.68970872 63.97438241 59.67211492 72.59155326 59.65161133 81.20874023 C55.03161133 81.53874023 50.41161133 81.86874023 45.65161133 82.20874023 C45.65161133 84.18874023 45.65161133 86.16874023 45.65161133 88.20874023 C43.34161133 88.20874023 41.03161133 88.20874023 38.65161133 88.20874023 C38.65161133 86.22874023 38.65161133 84.24874023 38.65161133 82.20874023 C21.16161133 81.87874023 3.67161133 81.54874023 -14.34838867 81.20874023 C-14.42860629 63.69010362 -14.42860629 63.69010362 -14.44604492 56.21459961 C-14.45799403 51.11649404 -14.47212037 46.0184604 -14.49926758 40.92041016 C-14.5210203 36.80961507 -14.53296244 32.69889714 -14.53814316 28.58804893 C-14.54183455 27.02078728 -14.54904293 25.45352979 -14.55984879 23.88630104 C-14.5743961 21.68875675 -14.57636528 19.49153012 -14.57543945 17.29394531 C-14.57988068 16.043741 -14.5843219 14.79353668 -14.58889771 13.50544739 C-14.24259035 8.75854065 -13.39989514 6.15509606 -9.84838867 2.95874023 C-6.23501217 0.42937668 -4.377922 0.07041892 0 0 Z " fill="#91C7E9" transform="translate(90.348388671875,145.791259765625)"/>
<path d="M0 0 C5.09225049 2.98152212 8.47899988 6.42902802 11.0390625 11.79296875 C12.23880469 17.46447731 11.71473578 22.13982022 9.0390625 27.29296875 C6.41536631 30.4130399 4.05714057 32.68380928 0.7265625 35.04296875 C-0.5934375 35.04296875 -1.9134375 35.04296875 -3.2734375 35.04296875 C-3.2734375 38.01296875 -3.2734375 40.98296875 -3.2734375 44.04296875 C-2.01273437 44.01678467 -0.75203125 43.99060059 0.546875 43.96362305 C5.25063132 43.87271893 9.95431091 43.81557365 14.65869141 43.76831055 C16.68974897 43.74325771 18.7207172 43.70920555 20.75146484 43.66577148 C23.68088898 43.60471188 26.60911529 43.57666648 29.5390625 43.5546875 C30.88798584 43.51597786 30.88798584 43.51597786 32.26416016 43.47648621 C38.56293994 43.47372113 42.90875379 44.88570044 47.7265625 49.04296875 C50.29272882 52.89221823 50.27753926 55.47789915 50.7265625 60.04296875 C51.29503906 60.18992188 51.86351562 60.336875 52.44921875 60.48828125 C59.7099041 62.59739519 64.35473386 65.35928799 68.4921875 71.78515625 C72.9046696 79.88845283 74.09125419 85.76329097 71.6015625 94.60546875 C68.45013857 102.92697065 64.03553496 107.47625965 55.99609375 111.23046875 C53.7265625 112.04296875 53.7265625 112.04296875 50.7265625 112.04296875 C50.7265625 113.69296875 50.7265625 115.34296875 50.7265625 117.04296875 C50.0665625 116.71296875 49.4065625 116.38296875 48.7265625 116.04296875 C46.7465625 117.52796875 46.7465625 117.52796875 44.7265625 119.04296875 C44.71847565 118.34441269 44.71038879 117.64585663 44.70205688 116.9261322 C44.62389221 110.32061325 44.5365368 103.7152859 44.43903542 97.11002254 C44.38923661 93.71474679 44.34290629 90.31949968 44.3046875 86.92407227 C44.26052363 83.01431221 44.20094099 79.10485803 44.140625 75.1953125 C44.12329819 73.37929787 44.12329819 73.37929787 44.10562134 71.52659607 C44.28064555 61.49458678 44.28064555 61.49458678 39.7265625 53.04296875 C36.7845246 52.84939665 33.93694773 52.78080364 30.99414062 52.80004883 C29.63789833 52.79720131 29.63789833 52.79720131 28.2542572 52.79429626 C25.25535505 52.79058127 22.25669326 52.801303 19.2578125 52.8125 C17.18037952 52.81369151 15.102946 52.81414502 13.0255127 52.81388855 C8.66752764 52.81545467 4.30962458 52.82375411 -0.04833984 52.8371582 C-5.64415446 52.8541482 -11.23987886 52.85797261 -16.83571625 52.85721302 C-21.12669746 52.85748451 -25.41765881 52.86296235 -29.70863342 52.87021446 C-31.77238311 52.87340438 -33.83613506 52.87536929 -35.89988708 52.87610817 C-38.78030253 52.87826831 -41.66062092 52.88700552 -44.54101562 52.89770508 C-45.82994469 52.8970253 -45.82994469 52.8970253 -47.14491272 52.89633179 C-51.34301054 52.8045869 -51.34301054 52.8045869 -55.2734375 54.04296875 C-55.6034375 74.83296875 -55.9334375 95.62296875 -56.2734375 117.04296875 C-56.6034375 117.04296875 -56.9334375 117.04296875 -57.2734375 117.04296875 C-57.7684375 110.60796875 -57.7684375 110.60796875 -58.2734375 104.04296875 C-59.4490625 104.26984375 -60.6246875 104.49671875 -61.8359375 104.73046875 C-66.4850989 105.34372712 -69.16660262 104.18194525 -73.2734375 102.04296875 C-72.9434375 104.02296875 -72.6134375 106.00296875 -72.2734375 108.04296875 C-73.7584375 108.53796875 -73.7584375 108.53796875 -75.2734375 109.04296875 C-81.77298026 103.52931169 -85.46840489 97.85248245 -86.65234375 89.30859375 C-87.02233079 80.85856707 -84.84922381 73.46737471 -79.0859375 67.16796875 C-75.18578712 63.59705184 -69.72517287 60.04296875 -64.2734375 60.04296875 C-64.3353125 58.99109375 -64.3971875 57.93921875 -64.4609375 56.85546875 C-64.25752481 52.71941076 -63.90432236 51.18305713 -61.2734375 48.04296875 C-55.49189878 43.94411315 -51.16342303 43.49301974 -44.18359375 43.65234375 C-42.7668058 43.66083344 -42.7668058 43.66083344 -41.32139587 43.66949463 C-38.32571194 43.69175804 -35.33125555 43.74193544 -32.3359375 43.79296875 C-30.29624132 43.81304673 -28.25652626 43.83129522 -26.21679688 43.84765625 C-21.23520924 43.89158992 -16.25453098 43.96054755 -11.2734375 44.04296875 C-11.2734375 41.07296875 -11.2734375 38.10296875 -11.2734375 35.04296875 C-12.3253125 34.95015625 -12.3253125 34.95015625 -13.3984375 34.85546875 C-18.33159652 33.46131511 -21.25536137 30.46827533 -24.1484375 26.41796875 C-25.99404792 20.88113749 -26.46026196 15.29574689 -24.4296875 9.73046875 C-19.40291882 0.7638003 -9.96163973 -4.19347377 0 0 Z " fill="#232022" transform="translate(120.2734375,0.95703125)"/>
<path d="M0 0 C3.37405722 0.24993016 4.2222071 1.23278839 6.625 3.75 C10.48897464 8.42614765 11.24801478 12.85032192 11.1953125 18.83203125 C11.18886719 20.12431641 11.18242187 21.41660156 11.17578125 22.74804688 C11.15907327 24.1028673 11.14214342 25.45768501 11.125 26.8125 C11.11496003 28.18684251 11.10583596 29.56119203 11.09765625 30.93554688 C11.07411242 34.29054317 11.04122567 37.64518199 11 41 C12.01320312 40.95359375 13.02640625 40.9071875 14.0703125 40.859375 C15.42184532 40.82183242 16.77341028 40.78543494 18.125 40.75 C18.79015625 40.71648437 19.4553125 40.68296875 20.140625 40.6484375 C25.29336605 40.54740336 28.13938687 41.62056473 32 45 C35.23201141 50.07072432 35.42891003 54.2332204 35.36328125 60.046875 C35.36402901 61.32549408 35.36402901 61.32549408 35.36479187 62.62994385 C35.36246127 64.42177679 35.35279289 66.21361363 35.33618164 68.00537109 C35.31245532 70.75517774 35.31564472 73.50402232 35.32226562 76.25390625 C35.31669276 77.99740163 35.30958536 79.74089294 35.30078125 81.484375 C35.30214836 82.72027374 35.30214836 82.72027374 35.30354309 83.98114014 C35.23107519 89.76892481 35.23107519 89.76892481 33 92 C31.08908081 92.24050903 31.08908081 92.24050903 28.73388672 92.22705078 C27.85312469 92.22689972 26.97236267 92.22674866 26.06491089 92.22659302 C25.11278717 92.21627045 24.16066345 92.20594788 23.1796875 92.1953125 C21.71899338 92.19106766 21.71899338 92.19106766 20.22879028 92.18673706 C17.11073651 92.17551913 13.99296732 92.1504117 10.875 92.125 C8.76432706 92.11497228 6.65364962 92.10584607 4.54296875 92.09765625 C-0.63811835 92.07557458 -5.81903885 92.04208129 -11 92 C-11.38133299 90.0085944 -11.71325582 88.00720923 -12 86 C-11 85 -11 85 -7.83984375 84.90234375 C-6.55207031 84.91394531 -5.26429688 84.92554688 -3.9375 84.9375 C-2.00197266 84.95103516 -2.00197266 84.95103516 -0.02734375 84.96484375 C0.97167969 84.97644531 1.97070312 84.98804688 3 85 C2.98511349 75.58530775 2.94346845 66.17122096 2.86790943 56.75681877 C2.83365724 52.38501028 2.80853225 48.01355057 2.80444336 43.64160156 C2.80015653 39.42024031 2.7716628 35.1996656 2.72656822 30.97854996 C2.71360536 29.37030752 2.70928128 27.7619709 2.71384621 26.15368271 C2.71876133 23.89570552 2.69262546 21.64001925 2.65942383 19.38232422 C2.65276199 18.09881073 2.64610016 16.81529724 2.63923645 15.4928894 C1.80002904 10.90732695 0.2572273 9.27906 -3 6 C-3.66 5.67 -4.32 5.34 -5 5 C-5 4.34 -5 3.68 -5 3 C-9.62 3 -14.24 3 -19 3 C-19 2.67 -19 2.34 -19 2 C-16.7722603 1.77692458 -14.54268636 1.57211822 -12.3125 1.375 C-11.07113281 1.25898438 -9.82976562 1.14296875 -8.55078125 1.0234375 C-5.07119831 1.00046996 -3.07515279 1.45948369 0 3 C0 2.01 0 1.02 0 0 Z " fill="#211F1F" transform="translate(147,142)"/>
<path d="M0 0 C6.75018338 3.93271554 10.11448596 8.17831551 12.6953125 15.5703125 C13.94000343 23.29437582 12.04863853 29.6782733 8.0703125 36.2578125 C3.52794653 40.68064252 -2.99602928 44.68581093 -9.4296875 44.8203125 C-16.07005816 44.72438419 -21.94145567 42.76670336 -26.91796875 38.19921875 C-32.01714165 32.20948607 -34.06708768 25.91805917 -33.66015625 18.109375 C-32.57321842 10.34553335 -28.33257547 5.07161126 -22.4296875 0.1953125 C-16.03887852 -3.17643882 -6.46665411 -2.7976305 0 0 Z " fill="#1C2026" transform="translate(123.3046875,162.4296875)"/>
<path d="M0 0 C0.33 0 0.66 0 1 0 C1.33 21.12 1.66 42.24 2 64 C5.94952264 65.31650755 9.72807452 65.1557533 13.84594727 65.16113281 C15.2024086 65.16858017 15.2024086 65.16858017 16.58627319 65.17617798 C19.57965858 65.19079215 22.57299104 65.19759884 25.56640625 65.203125 C27.6424103 65.20887515 29.71841433 65.2146329 31.79441833 65.22039795 C36.14639534 65.23090449 40.49835389 65.23675006 44.8503418 65.24023438 C50.43836427 65.24573159 56.0261446 65.26978722 61.61409092 65.29820633 C65.90077948 65.31678491 70.18740901 65.32203565 74.47413445 65.32357025 C76.53510811 65.32660595 78.59608052 65.33466512 80.65701485 65.34775543 C83.53268303 65.36472321 86.40774999 65.36295904 89.28344727 65.35644531 C90.14116226 65.3656601 90.99887726 65.37487488 91.88258362 65.3843689 C94.48463636 65.40147143 94.48463636 65.40147143 98 65 C100.29522619 61.55716072 100.26778547 60.21105494 100.31884766 56.15161133 C100.33871735 54.9505928 100.35858704 53.74957428 100.37905884 52.51216125 C100.39061005 51.21521835 100.40216125 49.91827545 100.4140625 48.58203125 C100.43277377 47.24109199 100.45234716 45.9001645 100.4727478 44.55924988 C100.52407965 41.0329991 100.56369948 37.50671013 100.60089111 33.98028564 C100.64092432 30.38064115 100.69201974 26.78115561 100.7421875 23.18164062 C100.83895905 16.12121015 100.92335981 9.06068001 101 2 C101.33 2 101.66 2 102 2 C102.8131322 5.58685355 103.14618844 8.94171001 103.20532227 12.61645508 C103.2352401 14.26760063 103.2352401 14.26760063 103.26576233 15.95210266 C103.28247482 17.1293541 103.29918732 18.30660553 103.31640625 19.51953125 C103.33718735 20.73323898 103.35796844 21.94694672 103.37937927 23.19743347 C103.44468916 27.06906551 103.50367363 30.94076455 103.5625 34.8125 C103.60570285 37.43946002 103.64931771 40.06641329 103.69335938 42.69335938 C103.80035158 49.12883571 103.90215236 55.56437849 104 62 C104.99 61.67 105.98 61.34 107 61 C107.495 60.01 107.495 60.01 108 59 C108.50338797 64.28557366 107.34676996 66.90950339 104 71 C101.06033999 72.8355335 98.85406788 73.24637117 95.41503906 73.22705078 C94.06409149 73.22682419 94.06409149 73.22682419 92.68585205 73.22659302 C91.72217712 73.21627045 90.7585022 73.20594788 89.765625 73.1953125 C88.27588165 73.19106766 88.27588165 73.19106766 86.75604248 73.18673706 C83.58723856 73.17555143 80.41871835 73.15044962 77.25 73.125 C75.1002645 73.11496812 72.95052457 73.10584263 70.80078125 73.09765625 C65.53374503 73.07561736 60.2669206 73.04109842 55 73 C55 75.97 55 78.94 55 82 C55.65484375 81.98428955 56.3096875 81.9685791 56.984375 81.95239258 C59.98949331 81.88952066 62.99447263 81.85084512 66 81.8125 C67.02996094 81.78736328 68.05992187 81.76222656 69.12109375 81.73632812 C75.50114621 81.67537221 80.18541977 82.33731362 86 85 C85.505 86.98 85.505 86.98 85 89 C81.7 88.67 78.4 88.34 75 88 C76.65 88.33 78.3 88.66 80 89 C80 89.33 80 89.66 80 90 C60.86 90 41.72 90 22 90 C22 89.67 22 89.34 22 89 C22.59538574 88.98541748 23.19077148 88.97083496 23.80419922 88.95581055 C26.49513051 88.88145656 29.18480333 88.78475813 31.875 88.6875 C33.28072266 88.65366211 33.28072266 88.65366211 34.71484375 88.61914062 C35.61074219 88.58369141 36.50664063 88.54824219 37.4296875 88.51171875 C38.25710449 88.48553467 39.08452148 88.45935059 39.93701172 88.43237305 C42.39327932 88.16903363 42.39327932 88.16903363 44 85 C37.07 84.67 30.14 84.34 23 84 C23 83.67 23 83.34 23 83 C31.25 83 39.5 83 48 83 C48 79.7 48 76.4 48 73 C46.63794434 73.02618408 45.27588867 73.05236816 43.87255859 73.0793457 C38.80729675 73.17001403 33.7421063 73.22731039 28.67626953 73.2746582 C26.48604256 73.29976434 24.29589906 73.33385637 22.10595703 73.37719727 C18.95324078 73.43801907 15.80163447 73.46624923 12.6484375 73.48828125 C11.67321136 73.51408768 10.69798523 73.5398941 9.69320679 73.56648254 C5.22676454 73.568315 2.02687748 73.52876955 -1.54052734 70.65698242 C-6.11148428 65.71895141 -6.21076656 63.42837996 -6 57 C-7.093125 56.896875 -8.18625 56.79375 -9.3125 56.6875 C-13 56 -13 56 -15 54.8125 C-16.52262484 52.05274248 -15.72429919 49.96304212 -15 47 C-14.278125 47.144375 -13.55625 47.28875 -12.8125 47.4375 C-11.4203125 47.7159375 -11.4203125 47.7159375 -10 48 C-9.13375 48.20625 -8.2675 48.4125 -7.375 48.625 C-4.85957587 49.20892371 -4.85957587 49.20892371 -2 48 C-1.34 48.33 -0.68 48.66 0 49 C0 32.83 0 16.66 0 0 Z " fill="#1B181B" transform="translate(62,56)"/>
<path d="M0 0 C1.32 0.33 2.64 0.66 4 1 C4 3.31 4 5.62 4 8 C4.66 8 5.32 8 6 8 C6.37125 8.9075 6.7425 9.815 7.125 10.75 C9.31852508 14.55211014 11.14319267 15.95816082 15 18 C18.23038842 18.79070548 18.23038842 18.79070548 21 19 C21.144375 19.969375 21.28875 20.93875 21.4375 21.9375 C21.67562341 24.86486773 21.67562341 24.86486773 23 26 C23.78405346 28.2087906 24.47800484 30.44080066 25.18359375 32.67578125 C25.96422353 34.89814832 26.90045893 36.91991581 28 39 C27.67 39.33 27.34 39.66 27 40 C27.66 40.33 28.32 40.66 29 41 C29 41.99 29 42.98 29 44 C29.86625 44.185625 29.86625 44.185625 30.75 44.375 C33 45 33 45 34.81964111 46.01913452 C37.40622511 47.18274615 39.30470043 47.27680248 42.13574219 47.31884766 C43.15649841 47.33871735 44.17725464 47.35858704 45.22894287 47.37905884 C46.87131927 47.39638565 46.87131927 47.39638565 48.546875 47.4140625 C49.6732135 47.43342865 50.799552 47.4527948 51.96002197 47.4727478 C55.55660434 47.53251521 59.15321876 47.57891819 62.75 47.625 C65.18881602 47.66318234 67.6276186 47.70223422 70.06640625 47.7421875 C76.04415144 47.83821449 82.02197766 47.92327048 88 48 C88 48.33 88 48.66 88 49 C58.96 49 29.92 49 0 49 C0 32.83 0 16.66 0 0 Z M18 27 C18.33 28.32 18.66 29.64 19 31 C19.33 29.68 19.66 28.36 20 27 C19.34 27 18.68 27 18 27 Z " fill="#91C8E9" transform="translate(72,72)"/>
<path d="M0 0 C4.06845856 2.37966444 6.47655689 4.56387553 8.3125 8.9375 C9.29457721 14.84866948 8.77415319 19.92407124 5.3125 24.9375 C0.62014293 29.38922338 -3.07821688 30.35331726 -9.5234375 30.29296875 C-13.47588922 29.64373932 -16.64737746 27.47093545 -19.6875 24.9375 C-22.48232159 20.74526761 -22.86516521 16.93433397 -22.6875 11.9375 C-21.14603692 6.55155461 -18.38412278 3.02738341 -13.6875 -0.0625 C-9.2998523 -2.25632385 -4.51196757 -1.30005845 0 0 Z " fill="#588AA9" transform="translate(119.6875,169.0625)"/>
<path d="M0 0 C1.7115477 0.0001133 1.7115477 0.0001133 3.45767212 0.00022888 C4.69415497 0.00539017 5.93063782 0.01055145 7.20458984 0.01586914 C8.46693451 0.01728409 9.72927917 0.01869904 11.02987671 0.02015686 C14.38691033 0.02481461 17.74387635 0.03380131 21.10089111 0.04486084 C24.52607641 0.05508769 27.95126868 0.05965721 31.37646484 0.06469727 C38.09783777 0.07574301 44.81917865 0.09249346 51.54052734 0.11352539 C51.54052734 0.44352539 51.54052734 0.77352539 51.54052734 1.11352539 C33.72052734 1.11352539 15.90052734 1.11352539 -2.45947266 1.11352539 C-4.66059513 6.61633157 -5.59224608 10.11595211 -5.66479492 15.97167969 C-5.67964432 17.01109207 -5.67964432 17.01109207 -5.6947937 18.07150269 C-5.72636226 20.36021517 -5.75114769 22.64894841 -5.77587891 24.93774414 C-5.79645245 26.52529945 -5.81744903 28.11284933 -5.83885193 29.70039368 C-5.89403127 33.87769167 -5.94345878 38.05503876 -5.99169922 42.23242188 C-6.0507794 47.24518451 -6.11698461 52.25785746 -6.18199921 57.27054596 C-6.27995669 64.88481764 -6.36884825 72.49914699 -6.45947266 80.11352539 C8.06052734 80.11352539 22.58052734 80.11352539 37.54052734 80.11352539 C37.54052734 80.44352539 37.54052734 80.77352539 37.54052734 81.11352539 C20.38052734 81.11352539 3.22052734 81.11352539 -14.45947266 81.11352539 C-14.53969027 63.59488878 -14.53969027 63.59488878 -14.55712891 56.11938477 C-14.56907802 51.02127919 -14.58320435 45.92324556 -14.61035156 40.82519531 C-14.63210429 36.71440022 -14.64404642 32.6036823 -14.64922714 28.49283409 C-14.65291853 26.92557244 -14.66012691 25.35831494 -14.67093277 23.7910862 C-14.68548008 21.59354191 -14.68744926 19.39631527 -14.68652344 17.19873047 C-14.69096466 15.94852615 -14.69540588 14.69832184 -14.69998169 13.41023254 C-14.35367433 8.6633258 -13.51097912 6.05988121 -9.95947266 2.86352539 C-6.28229441 0.28950062 -4.45937844 -0.00982242 0 0 Z " fill="#7AA4BE" transform="translate(90.45947265625,145.886474609375)"/>
<path d="M0 0 C0.33 0 0.66 0 1 0 C1.33 22.44 1.66 44.88 2 68 C2.66 68 3.32 68 4 68 C4.01981934 66.96069336 4.03963867 65.92138672 4.06005859 64.85058594 C4.13622124 60.98885164 4.224922 57.1274889 4.31738281 53.26611328 C4.35562857 51.59594059 4.39048915 49.92568677 4.421875 48.25537109 C4.46762161 45.85224443 4.52559925 43.44967416 4.5859375 41.046875 C4.59748871 40.30193787 4.60903992 39.55700073 4.62094116 38.78948975 C4.72674142 35.05993694 4.93589059 32.17221025 7 29 C7.66 29 8.32 29 9 29 C9.33 29.99 9.66 30.98 10 32 C12.64 32.33 15.28 32.66 18 33 C18 33.33 18 33.66 18 34 C14.37 34 10.74 34 7 34 C7 46.21 7 58.42 7 71 C12.94 71 18.88 71 25 71 C24.67 70.01 24.34 69.02 24 68 C23.76743714 64.00382744 23.8148323 60.00222837 23.8125 56 C23.80025391 54.89398438 23.78800781 53.78796875 23.77539062 52.6484375 C23.77345703 51.58882812 23.77152344 50.52921875 23.76953125 49.4375 C23.76542236 48.46683594 23.76131348 47.49617188 23.75708008 46.49609375 C24 44 24 44 26 41 C26.99 41.33 27.98 41.66 29 42 C29.02468447 46.80549747 29.04285255 51.61095818 29.05493164 56.41650391 C29.05996621 58.05192711 29.06679427 59.6873458 29.07543945 61.32275391 C29.08754335 63.67090975 29.093237 66.01900619 29.09765625 68.3671875 C29.10281754 69.10057343 29.10797882 69.83395935 29.11329651 70.58956909 C29.11387171 75.77225659 29.11387171 75.77225659 28 78 C13.81 78 -0.38 78 -15 78 C-15.495 75.03 -15.495 75.03 -16 72 C-15.505 71.505 -15.505 71.505 -15 71 C-10.05 71 -5.1 71 0 71 C0 47.57 0 24.14 0 0 Z " fill="#1F1C21" transform="translate(151,156)"/>
<path d="M0 0 C0.99 0.33 1.98 0.66 3 1 C2.67 1.66 2.34 2.32 2 3 C1.84479443 5.32273159 1.74980833 7.64959313 1.68359375 9.9765625 C1.66281265 10.66181 1.64203156 11.3470575 1.62062073 12.05307007 C1.55519815 14.24361069 1.49627446 16.43427189 1.4375 18.625 C1.39430782 20.1093875 1.3506933 21.59376278 1.30664062 23.078125 C1.19952447 26.71862084 1.09823638 30.35925251 1 34 C0.01 34 -0.98 34 -2 34 C-1.01 35.98 -0.02 37.96 1 40 C1.66 39.34 2.32 38.68 3 38 C5.27734375 37.8046875 5.27734375 37.8046875 7.9375 37.875 C9.25041016 37.90207031 9.25041016 37.90207031 10.58984375 37.9296875 C11.78287109 37.96449219 11.78287109 37.96449219 13 38 C15.98481967 38.19979271 15.98481967 38.19979271 18.4375 36.9375 C21.39550137 35.85530438 22.05832522 36.22414022 25 37 C26.7402467 37.11214803 28.48393413 37.17569791 30.22753906 37.20532227 C31.26831604 37.22526749 32.30909302 37.24521271 33.38140869 37.26576233 C34.49820007 37.28247482 35.61499146 37.29918732 36.765625 37.31640625 C38.48842682 37.3475779 38.48842682 37.3475779 40.24603271 37.37937927 C43.91396111 37.44474993 47.58196093 37.50370194 51.25 37.5625 C53.73698654 37.60569707 56.22396587 37.64931175 58.7109375 37.69335938 C64.80721622 37.80041858 70.90356595 37.90220825 77 38 C77.99 39.98 77.99 39.98 79 42 C77.24817188 43.75182812 74.95354967 43.12610303 72.61940002 43.13552856 C71.46298256 43.13249222 71.46298256 43.13249222 70.28320312 43.12939453 C69.47511703 43.13114685 68.66703094 43.13289917 67.8344574 43.13470459 C65.1500334 43.13912376 62.46567472 43.13618489 59.78125 43.1328125 C57.92419421 43.13348552 56.0671385 43.13445553 54.21008301 43.13571167 C50.31273563 43.13718873 46.41541113 43.13503382 42.51806641 43.13037109 C37.510655 43.1246738 32.50329719 43.12795276 27.49588776 43.13394356 C23.65960279 43.13754895 19.82333063 43.13641069 15.98704529 43.13381577 C14.14017226 43.13314644 12.29329808 43.13397513 10.44642639 43.13629532 C7.86985168 43.13882149 5.29336499 43.13498177 2.71679688 43.12939453 C1.9458519 43.13141876 1.17490692 43.13344299 0.38059998 43.13552856 C-4.88573745 43.11426255 -4.88573745 43.11426255 -6 42 C-6.08865208 39.1156618 -6.11521296 36.25537842 -6.09765625 33.37109375 C-6.0962413 32.50686295 -6.09482635 31.64263214 -6.09336853 30.75221252 C-6.08775239 27.98060708 -6.07519719 25.2090812 -6.0625 22.4375 C-6.05748708 20.5631522 -6.05292381 18.68880315 -6.04882812 16.81445312 C-6.03777772 12.20960456 -6.0205023 7.60481579 -6 3 C-5.195625 2.690625 -4.39125 2.38125 -3.5625 2.0625 C-1.10919595 1.23664655 -1.10919595 1.23664655 0 0 Z " fill="#201B1C" transform="translate(51,191)"/>
<path d="M0 0 C4.29 0 8.58 0 13 0 C13 12.21 13 24.42 13 37 C7.39 37 1.78 37 -4 37 C-4.09193633 32.37253794 -4.17153193 27.74825392 -4.21972656 23.12060547 C-4.2398188 21.54725396 -4.26709799 19.97397692 -4.30175781 18.40087891 C-4.35038494 16.13685728 -4.37299135 13.87382427 -4.390625 11.609375 C-4.41127014 10.90818542 -4.43191528 10.20699585 -4.45318604 9.48455811 C-4.45410156 7.48339844 -4.45410156 7.48339844 -4 4 C-2.68 2.68 -1.36 1.36 0 0 Z " fill="#496B81" transform="translate(56,190)"/>
<path d="M0 0 C3.96 0 7.92 0 12 0 C16 4 16 4 16.45410156 7.48339844 C16.45347228 8.85888657 16.43110599 10.23448254 16.390625 11.609375 C16.38496521 12.33618469 16.37930542 13.06299438 16.37347412 13.81182861 C16.35114553 16.12523245 16.30096048 18.4370672 16.25 20.75 C16.22993023 22.32159216 16.21168029 23.89320868 16.1953125 25.46484375 C16.15469859 29.31098138 16.07641572 33.15374213 16 37 C10.72 37 5.44 37 0 37 C0 24.79 0 12.58 0 0 Z " fill="#558BAA" transform="translate(158,190)"/>
<path d="M0 0 C3.87846648 3.33728511 5.46224943 5.57485274 6.125 10.6875 C5.56677584 15.31278593 4.37196938 17.50950171 1.6875 21.3125 C-2.67120891 24.09465462 -7.31011084 24.09363017 -12.3125 23.3125 C-16.20119298 21.32053686 -18.70728275 18.35554719 -20.3125 14.3125 C-20.55387178 9.81493923 -19.86583627 6.20928637 -17.5 2.375 C-12.24343378 -2.58119101 -6.43197398 -3.27666599 0 0 Z " fill="#201F21" transform="translate(143.3125,66.6875)"/>
<path d="M0 0 C5.09225049 2.98152212 8.47899988 6.42902802 11.0390625 11.79296875 C12.25848508 17.55751184 11.7056257 22.21988555 8.9140625 27.41796875 C6.97821022 29.74099149 5.25804189 31.41558914 2.7265625 33.04296875 C1.4065625 31.39296875 0.0865625 29.74296875 -1.2734375 28.04296875 C-0.06962302 25.54935304 1.18084972 23.36153792 2.7265625 21.04296875 C3.31025693 17.62758731 3.31025693 17.62758731 2.7265625 14.04296875 C0.41382808 11.14577465 0.41382808 11.14577465 -2.2734375 9.04296875 C-2.6034375 8.71296875 -2.9334375 8.38296875 -3.2734375 8.04296875 C-6.20572413 7.74974009 -8.41835633 7.54292628 -11.2734375 8.04296875 C-14.23394624 10.33496278 -14.23394624 10.33496278 -16.2734375 13.04296875 C-16.6034375 13.37296875 -16.9334375 13.70296875 -17.2734375 14.04296875 C-17.64104481 16.37114839 -17.97585331 18.70480725 -18.2734375 21.04296875 C-18.9334375 20.38296875 -19.5934375 19.72296875 -20.2734375 19.04296875 C-20.6034375 21.02296875 -20.9334375 23.00296875 -21.2734375 25.04296875 C-22.2634375 25.37296875 -23.2534375 25.70296875 -24.2734375 26.04296875 C-26.0240429 20.79115254 -26.3306412 14.98239026 -24.4375 9.71875 C-19.36399282 0.78052426 -9.9831026 -4.20250883 0 0 Z " fill="#212227" transform="translate(120.2734375,0.95703125)"/>
<path d="M0 0 C0 12.21 0 24.42 0 37 C-7.14540939 34.61819687 -10.58602149 31.65725809 -14 25 C-15.60012961 20.63601017 -15.77483539 16.11088332 -14.1640625 11.72265625 C-11.45221418 6.2534588 -6.7433827 0 0 0 Z " fill="#4C738D" transform="translate(56,69)"/>
<path d="M0 0 C7.42119855 3.18051367 10.83408434 5.56149904 14 13 C14.86174847 18.95389853 14.04732497 24.78088746 11 30 C7.72939356 33.78751263 5.00778612 34.99844278 0 36 C0 24.12 0 12.24 0 0 Z " fill="#5A8AA9" transform="translate(171,69)"/>
<path d="M0 0 C3.02508145 1.73602105 5.41790069 3.83580137 7 7 C7.62015139 11.51824582 7.2378934 14.30132997 4.5625 17.9375 C2.6285059 19.98633935 1.50140842 20.88742125 -1.26171875 21.5078125 C-5.36413859 21.60274453 -8.46393604 21.18935024 -12 19 C-14.57488823 14.95374707 -15.79648514 11.77891083 -15 7 C-11.20405391 0.96866344 -7.1264893 -1.21639521 0 0 Z " fill="#568BAB" transform="translate(117,8)"/>
<path d="M0 0 C0.66 0.33 1.32 0.66 2 1 C2.99 1 3.98 1 5 1 C6.66666667 1 8.33333333 1 10 1 C10 2.65 10 4.3 10 6 C7.69 6.66 5.38 7.32 3 8 C2.83312552 10.41645782 2.83312552 10.41645782 3 13 C4.82203581 15.22966747 4.82203581 15.22966747 7.4375 15.3125 C10.02988767 15.2209138 10.02988767 15.2209138 11.75 13.625 C13.07441644 12.01022516 13.07441644 12.01022516 14 10 C14.66 10.33 15.32 10.66 16 11 C16.33 8.69 16.66 6.38 17 4 C18.5 5.0625 18.5 5.0625 20 7 C20.66034631 11.90542973 19.95157915 15.38291851 17.328125 19.484375 C14.92507471 22.22667945 12.45734376 23.06241525 9 24 C4.75673813 24 2.01517386 23.30229354 -1.3125 20.75 C-4.4388617 17.55093222 -5.91545323 15.594529 -6.0625 11.08203125 C-5.81163571 6.90357291 -5.24716688 5.28936611 -2.4375 2 C-1.633125 1.34 -0.82875 0.68 0 0 Z " fill="#222428" transform="translate(83,67)"/>
<path d="M0 0 C3.9760667 1.60936033 4.67702556 4.30089418 6.625 8.0625 C9.8460311 9.67301555 13.14189626 9.66418779 16.625 9.0625 C19.91681731 6.48629515 22.04663187 3.93667633 23.625 0.0625 C25.275 0.0625 26.925 0.0625 28.625 0.0625 C29.62366059 4.2235858 29.97599636 6.34646743 28.0625 10.25 C23.76672836 15.20665958 19.48734844 17.8199281 12.9375 18.375 C6.94434542 18.28670306 2.47272501 15.81546988 -1.8125 11.75 C-3.73036713 8.45126853 -4.23163549 5.86165951 -4.375 2.0625 C-2.375 0.0625 -2.375 0.0625 0 0 Z " fill="#1D1F27" transform="translate(99.375,96.9375)"/>
<path d="M0 0 C14.19 0 28.38 0 43 0 C43.495 1.485 43.495 1.485 44 3 C45.99665314 4.68538601 45.99665314 4.68538601 48 6 C47.01 6.33 46.02 6.66 45 7 C45 6.34 45 5.68 45 5 C44.01 5.66 43.02 6.32 42 7 C38.97890348 7.18491553 36.05123205 7.25206923 33.03051758 7.22705078 C32.11324387 7.22734283 31.19597015 7.22763489 30.25090027 7.22793579 C27.2153481 7.22654111 24.1800406 7.21097333 21.14453125 7.1953125 C19.04131708 7.19158286 16.93810117 7.18873566 14.83488464 7.18673706 C9.29626681 7.17909673 3.75775368 7.15944475 -1.78082275 7.1373291 C-7.43134138 7.11687932 -13.08187691 7.1077372 -18.73242188 7.09765625 C-29.82166062 7.07619928 -40.9108216 7.04205847 -52 7 C-48.28493803 4.52329202 -46.35678965 4.73225902 -41.91748047 4.69702148 C-41.19998123 4.68858215 -40.48248199 4.68014282 -39.74324036 4.67144775 C-37.36788267 4.6456333 -34.99264973 4.63351418 -32.6171875 4.62109375 C-30.96150742 4.60491208 -29.30583683 4.58773138 -27.650177 4.56959534 C-23.28398055 4.52386124 -18.91777104 4.4891003 -14.55145264 4.45739746 C-7.58444117 4.40560284 -0.61757215 4.33989608 6.34926987 4.26918221 C8.77361601 4.24653006 11.19794498 4.23013475 13.62234497 4.21446228 C15.12860287 4.20103582 16.63485909 4.18741937 18.14111328 4.17358398 C19.44444611 4.16407211 20.74777893 4.15456024 22.09060669 4.14476013 C26.40766494 3.98490466 30.7064055 3.47706606 35 3 C17.675 2.505 17.675 2.505 0 2 C0 1.34 0 0.68 0 0 Z " fill="#101920" transform="translate(118,46)"/>
<path d="M0 0 C2.31 0 4.62 0 7 0 C7 11.55 7 23.1 7 35 C4.36 35 1.72 35 -1 35 C-1.0246519 30.17619198 -1.04283693 25.35242033 -1.05493164 20.52856445 C-1.05997174 18.88630536 -1.06680378 17.24405077 -1.07543945 15.60180664 C-1.08751926 13.24624521 -1.09323139 10.89074291 -1.09765625 8.53515625 C-1.10281754 7.79660904 -1.10797882 7.05806183 -1.11329651 6.2971344 C-1.1134925 4.53101912 -1.06194719 2.76502854 -1 1 C-0.67 0.67 -0.34 0.34 0 0 Z " fill="#5B8DAE" transform="translate(61,191)"/>
<path d="M0 0 C11.30883235 -0.04626898 22.61764231 -0.08184146 33.92654991 -0.10362434 C39.17730418 -0.11407717 44.42799385 -0.12826363 49.67871094 -0.15087891 C54.74261742 -0.17255395 59.80646164 -0.18455732 64.87041092 -0.18975449 C66.80578212 -0.19345987 68.74114979 -0.20069519 70.6764946 -0.21146011 C73.37994597 -0.22590414 76.08313756 -0.22798093 78.78662109 -0.22705078 C79.59294479 -0.23424133 80.39926849 -0.24143188 81.23002625 -0.24884033 C86.77189568 -0.22810432 86.77189568 -0.22810432 89 2 C89.24050903 4.40444946 89.24050903 4.40444946 89.22705078 7.45947266 C89.22689972 8.60050446 89.22674866 9.74153625 89.22659302 10.91714478 C89.21627045 12.15362762 89.20594788 13.39011047 89.1953125 14.6640625 C89.1924826 15.92640717 89.18965271 17.18875183 89.18673706 18.48934937 C89.17742131 21.84646944 89.15944835 25.20331912 89.1373291 28.56036377 C89.1168755 31.98553122 89.1077364 35.41072659 89.09765625 38.8359375 C89.07556458 45.55736671 89.04206377 52.27866773 89 59 C88.67 59 88.34 59 88 59 C87.9845388 57.99188766 87.9845388 57.99188766 87.96876526 56.96340942 C87.86084977 49.98836236 87.7462399 43.01344841 87.62768555 36.03857422 C87.58428863 33.43313371 87.54261714 30.82766389 87.50268555 28.22216797 C87.44509808 24.48395944 87.3813706 20.74589918 87.31640625 17.0078125 C87.29969376 15.83695099 87.28298126 14.66608948 87.26576233 13.45974731 C87.2358445 11.838293 87.2358445 11.838293 87.20532227 10.18408203 C87.18200584 8.75178757 87.18200584 8.75178757 87.15821838 7.29055786 C87.14545368 4.97047772 87.14545368 4.97047772 86 3 C85.05532364 3.00222061 84.11064728 3.00444122 83.13734436 3.00672913 C74.2074505 3.02705589 65.27756137 3.04201794 56.34764957 3.05181217 C51.75739129 3.05701684 47.16715178 3.06407036 42.5769043 3.07543945 C38.14190424 3.08635451 33.70692217 3.09229501 29.27190971 3.09487724 C27.58515579 3.09671602 25.89840278 3.10030653 24.21165657 3.10573006 C7.93959071 3.15594041 7.93959071 3.15594041 0 2 C0 1.34 0 0.68 0 0 Z " fill="#9AC4DD" transform="translate(73,53)"/>
<path d="M0 0 C-0.556875 0.20625 -1.11375 0.4125 -1.6875 0.625 C-5.04610504 2.6220084 -7.39723139 4.43048743 -9 8 C-10.03462914 16.92231844 -10.03462914 16.92231844 -7 25 C-7 25.99 -7 26.98 -7 28 C-5.68 28.66 -4.36 29.32 -3 30 C-3 30.33 -3 30.66 -3 31 C-8.43629023 30.56509678 -11.7128221 29.3898616 -16 26 C-18.79482159 21.80776761 -19.17766521 17.99683397 -19 13 C-17.45853692 7.61405461 -14.69662278 4.08988341 -10 1 C-6.78548731 -0.60725635 -3.56387464 -0.05748185 0 0 Z " fill="#497391" transform="translate(116,168)"/>
<path d="M0 0 C0.33 0 0.66 0 1 0 C1.8489009 3.68223075 2.12642998 7.08460558 2.12939453 10.86010742 C2.13254669 12.014478 2.13569885 13.16884857 2.13894653 14.35820007 C2.13591019 16.21309807 2.13591019 16.21309807 2.1328125 18.10546875 C2.13376923 19.38102127 2.13472595 20.65657379 2.13571167 21.97077942 C2.13639152 24.66309013 2.13505421 27.35530975 2.13037109 30.04760742 C2.12465693 33.50110344 2.12796757 36.95452203 2.13394356 40.40801525 C2.13841909 43.70300256 2.13528947 46.99798043 2.1328125 50.29296875 C2.13483673 51.53564011 2.13686096 52.77831146 2.13894653 54.05863953 C2.13421829 55.77601067 2.13421829 55.77601067 2.12939453 57.52807617 C2.12859894 58.53891769 2.12780334 59.54975922 2.12698364 60.5912323 C2 63 2 63 1 65 C-4.65655312 66.00600929 -10.164725 66.11625284 -15.89453125 66.02172852 C-16.7442601 66.01212097 -17.59398895 66.00251343 -18.46946716 65.99261475 C-21.2505697 65.95989331 -24.03150162 65.91946062 -26.8125 65.87890625 C-28.75162167 65.85457881 -30.69074948 65.83073661 -32.62988281 65.80735779 C-37.71306399 65.74477779 -42.79613525 65.67563838 -47.87921143 65.60510254 C-53.07437165 65.53418232 -58.26960928 65.46950751 -63.46484375 65.40429688 C-73.64331426 65.27562116 -83.82167954 65.14001118 -94 65 C-94 64.67 -94 64.34 -94 64 C-92.29657944 63.99120064 -92.29657944 63.99120064 -90.55874634 63.98222351 C-79.87530741 63.92509923 -69.19207406 63.85239208 -58.50884438 63.76428509 C-53.01600221 63.71948911 -47.5232358 63.68025355 -42.03027344 63.65356445 C-36.73279832 63.62762328 -31.43561333 63.58728674 -26.13831711 63.53681374 C-24.11367771 63.52008262 -22.08898806 63.5086074 -20.06428909 63.50238609 C-17.23606946 63.49281261 -14.40860264 63.46483552 -11.58056641 63.43237305 C-10.31497643 63.43452568 -10.31497643 63.43452568 -9.02381897 63.4367218 C-6.46176948 63.43026282 -6.46176948 63.43026282 -3 63 C-0.70477381 59.55716072 -0.73221453 58.21105494 -0.68115234 54.15161133 C-0.66128265 52.9505928 -0.64141296 51.74957428 -0.62094116 50.51216125 C-0.60938995 49.21521835 -0.59783875 47.91827545 -0.5859375 46.58203125 C-0.56722623 45.24109199 -0.54765284 43.9001645 -0.5272522 42.55924988 C-0.47592035 39.0329991 -0.43630052 35.50671013 -0.39910889 31.98028564 C-0.35907568 28.38064115 -0.30798026 24.78115561 -0.2578125 21.18164062 C-0.16104095 14.12121015 -0.07664019 7.06068001 0 0 Z " fill="#101B27" transform="translate(163,58)"/>
<path d="M0 0 C0.33 0 0.66 0 1 0 C1.01030746 0.76785828 1.02061493 1.53571655 1.03123474 2.32684326 C1.12924499 9.56601574 1.23176442 16.8051037 1.33933926 24.04413986 C1.39448462 27.76572513 1.44789102 31.48731837 1.49731445 35.20898438 C1.54508196 38.80112671 1.59742891 42.39317589 1.65294075 45.9852066 C1.67330828 47.35509163 1.69203046 48.72500214 1.70907402 50.09493256 C1.73324211 52.0148457 1.76382225 53.93467488 1.79467773 55.85449219 C1.81799416 57.49330353 1.81799416 57.49330353 1.84178162 59.16522217 C1.97804988 61.60672268 2.29720582 63.66887263 3 66 C-0.42691357 64.76250343 -3.35302769 63.5489363 -6 61 C-6 59.68 -6 58.36 -6 57 C-7.093125 56.896875 -8.18625 56.79375 -9.3125 56.6875 C-13 56 -13 56 -15 54.8125 C-16.52262484 52.05274248 -15.72429919 49.96304212 -15 47 C-14.278125 47.144375 -13.55625 47.28875 -12.8125 47.4375 C-11.4203125 47.7159375 -11.4203125 47.7159375 -10 48 C-9.13375 48.20625 -8.2675 48.4125 -7.375 48.625 C-4.85957587 49.20892371 -4.85957587 49.20892371 -2 48 C-1.34 48.33 -0.68 48.66 0 49 C0 32.83 0 16.66 0 0 Z " fill="#18181A" transform="translate(62,56)"/>
<path d="M0 0 C0 11.88 0 23.76 0 36 C7.96041405 32.40780999 7.96041405 32.40780999 12 26 C12.84730512 23.02469293 13.48498749 20.0494162 14 17 C14.66 17.99 15.32 18.98 16 20 C16.66 20 17.32 20 18 20 C18.99 16.535 18.99 16.535 20 13 C20.66 13 21.32 13 22 13 C22.2358396 18.77807024 21.86783046 23.51324804 20 29 C17 29 17 29 14 28 C13.67 28.99 13.34 29.98 13 31 C11.36739286 32.37482707 9.69774938 33.70647667 8 35 C7.2884375 35.7734375 7.2884375 35.7734375 6.5625 36.5625 C4.28772363 38.65529426 1.82800677 39.79659287 -1 41 C-1.66 40.67 -2.32 40.34 -3 40 C-3 27.13 -3 14.26 -3 1 C-1 0 -1 0 0 0 Z " fill="#2B2F38" transform="translate(171,69)"/>
<path d="M0 0 C1.34384766 0.06574219 1.34384766 0.06574219 2.71484375 0.1328125 C5.0625 0.875 5.0625 0.875 6.68432617 2.86206055 C8.54617358 6.93239869 8.49366635 10.39944604 8.4609375 14.82421875 C8.46380768 15.67804642 8.46667786 16.53187408 8.46963501 17.41157532 C8.47167044 19.20936754 8.46617707 21.00718217 8.45361328 22.80493164 C8.43749233 25.56381245 8.45350959 28.32124149 8.47265625 31.08007812 C8.47067489 32.82812824 8.46683344 34.57617745 8.4609375 36.32421875 C8.47004654 37.56482307 8.47004654 37.56482307 8.4793396 38.83049011 C8.45068359 41.1472168 8.45068359 41.1472168 8.0625 44.875 C7.0725 45.535 6.0825 46.195 5.0625 46.875 C5.0625 34.995 5.0625 23.115 5.0625 10.875 C4.4025 10.875 3.7425 10.875 3.0625 10.875 C1.67941219 13.64117563 1.95039804 15.88518 1.96484375 18.9765625 C1.96967773 20.79414063 1.96967773 20.79414063 1.97460938 22.6484375 C1.98298828 23.91945312 1.99136719 25.19046875 2 26.5 C2.00451172 27.77875 2.00902344 29.0575 2.01367188 30.375 C2.02548797 33.54171292 2.04196185 36.70833356 2.0625 39.875 C1.4025 39.875 0.7425 39.875 0.0625 39.875 C0.0531543 38.8962793 0.04380859 37.91755859 0.03417969 36.90917969 C-0.00575458 33.27086209 -0.07152134 29.63338709 -0.14501953 25.99560547 C-0.17320954 24.42247356 -0.19443398 22.84920053 -0.20849609 21.27587891 C-0.22995442 19.01131044 -0.27661348 16.74843496 -0.328125 14.484375 C-0.32935364 13.78318542 -0.33058228 13.08199585 -0.33184814 12.35955811 C-0.43281464 8.97816025 -0.72250225 7.15625492 -2.80078125 4.4375 C-5.50916813 2.45696115 -7.35904666 2.28349778 -10.6875 2.125 C-12.16476563 2.03992188 -12.16476563 2.03992188 -13.671875 1.953125 C-14.41953125 1.92734375 -15.1671875 1.9015625 -15.9375 1.875 C-15.9375 1.545 -15.9375 1.215 -15.9375 0.875 C-10.60910724 0.12370818 -5.38141928 -0.26548335 0 0 Z " fill="#2A2A2F" transform="translate(173.9375,187.125)"/>
<path d="M0 0 C1.28132813 0.10183594 2.56265625 0.20367187 3.8828125 0.30859375 C4.87023437 0.39238281 5.85765625 0.47617187 6.875 0.5625 C6.215 1.2225 5.555 1.8825 4.875 2.5625 C11.145 2.8925 17.415 3.2225 23.875 3.5625 C23.875 3.8925 23.875 4.2225 23.875 4.5625 C23.07280029 4.57708252 22.27060059 4.59166504 21.4440918 4.60668945 C17.81640301 4.68106719 14.18964496 4.77776243 10.5625 4.875 C8.66854492 4.90883789 8.66854492 4.90883789 6.73632812 4.94335938 C5.52783203 4.97880859 4.31933594 5.01425781 3.07421875 5.05078125 C1.95877686 5.07696533 0.84333496 5.10314941 -0.3059082 5.13012695 C-3.06513937 5.34223878 -3.06513937 5.34223878 -4.77416992 6.70678711 C-6.71736872 9.37627094 -6.52461806 11.40422972 -6.55737305 14.6862793 C-6.57716721 15.94736008 -6.59696136 17.20844086 -6.61735535 18.50773621 C-6.62412512 19.88406221 -6.63057198 21.26038983 -6.63671875 22.63671875 C-6.65356379 24.04492261 -6.6717138 25.45311141 -6.69111633 26.86128235 C-6.73864215 30.56510718 -6.76843444 34.268871 -6.79455566 37.97290039 C-6.82434842 41.75354058 -6.87088307 45.53397045 -6.91601562 49.31445312 C-7.00207794 56.73036445 -7.06940981 64.14629102 -7.125 71.5625 C-7.455 71.5625 -7.785 71.5625 -8.125 71.5625 C-8.62 42.8525 -8.62 42.8525 -9.125 13.5625 C-9.785 13.2325 -10.445 12.9025 -11.125 12.5625 C-11.125 11.2425 -11.125 9.9225 -11.125 8.5625 C-12.115 8.5625 -13.105 8.5625 -14.125 8.5625 C-13.5818634 4.76054378 -11.96834437 3.06119657 -9.125 0.5625 C-6.07230154 -0.96384923 -3.36654311 -0.27544444 0 0 Z " fill="#2E3136" transform="translate(71.125,46.4375)"/>
<path d="M0 0 C3.98066095 1.57724302 5.60667274 2.41000911 8 6 C8.125 9.1875 8.125 9.1875 8 12 C7.360625 12.28875 6.72125 12.5775 6.0625 12.875 C3.84793921 13.82823451 3.84793921 13.82823451 3 16 C-0.23253796 18.15502531 -1.25150923 18.46856135 -5 18 C-6.8125 16.8125 -6.8125 16.8125 -8 15 C-8.3125 12.4375 -8.3125 12.4375 -8 10 C-5.64046906 7.64046906 -4.22104383 7.50858587 -1 7 C-0.67 5.68 -0.34 4.36 0 3 C-2.31 3.66 -4.62 4.32 -7 5 C-7.66 4.34 -8.32 3.68 -9 3 C-9 2.34 -9 1.68 -9 1 C-5.92805092 -0.53597454 -3.39755707 -0.2265038 0 0 Z " fill="#202128" transform="translate(93,65)"/>
<path d="M0 0 C2.36425667 1.93439182 3.02125626 3.06943712 3.9375 6.0625 C4.67677786 9.08971706 4.67677786 9.08971706 6.9375 10.125 C7.9584375 10.558125 7.9584375 10.558125 9 11 C10.8125 12.5625 10.8125 12.5625 12 15 C11.94727563 18.0527413 11.53260705 20.99686629 11 24 C12.32 24 13.64 24 15 24 C15 24.99 15 25.98 15 27 C12.14512885 27.95162372 10.39545683 28.12163139 7.43676758 28.11352539 C6.51603958 28.11344986 5.59531158 28.11337433 4.64668274 28.11329651 C3.65597275 28.10813522 2.66526276 28.10297394 1.64453125 28.09765625 C0.62775803 28.0962413 -0.3890152 28.09482635 -1.43659973 28.09336853 C-4.68692964 28.08776707 -7.93719088 28.07521432 -11.1875 28.0625 C-13.38997296 28.05748519 -15.59244701 28.05292225 -17.79492188 28.04882812 C-23.19663804 28.03779717 -28.59831412 28.02105762 -34 28 C-34 27.67 -34 27.34 -34 27 C-19.81 27 -5.62 27 9 27 C9 24.03 9 21.06 9 18 C7.948125 17.9071875 7.948125 17.9071875 6.875 17.8125 C2.99783115 16.71677837 0.86074042 14.79572359 -2 12 C-2.875 9.6875 -2.875 9.6875 -3 8 C-2.34 8 -1.68 8 -1 8 C-1.020625 7.05125 -1.04125 6.1025 -1.0625 5.125 C-1 2 -1 2 0 0 Z " fill="#444344" transform="translate(100,18)"/>
<path d="M0 0 C3.25597758 0.24118352 4.7276304 1.52224212 6.8125 3.875 C7.534375 4.90625 8.25625 5.9375 9 7 C8.67 7.99 8.34 8.98 8 10 C7.34 10 6.68 10 6 10 C4.85856193 13.66510054 4.84212997 17.14838519 4.79467773 20.97167969 C4.77982834 22.01131111 4.77982834 22.01131111 4.76467896 23.07194519 C4.73317581 25.35522078 4.70835098 27.63851714 4.68359375 29.921875 C4.66301455 31.508001 4.64201782 33.09412164 4.62062073 34.68023682 C4.56549979 38.84930061 4.51604663 43.01841308 4.46777344 47.18756104 C4.41748544 51.44409503 4.36183751 55.70055858 4.30664062 59.95703125 C4.19918113 68.30462789 4.0977092 76.65228357 4 85 C3.67 85 3.34 85 3 85 C2.99857498 84.09877411 2.99714996 83.19754822 2.99568176 82.26901245 C2.97783257 73.76469174 2.93616223 65.26089023 2.86790943 56.75681877 C2.83365724 52.38501028 2.80853225 48.01355057 2.80444336 43.64160156 C2.80015653 39.42024031 2.7716628 35.1996656 2.72656822 30.97854996 C2.71360536 29.37030752 2.70928128 27.7619709 2.71384621 26.15368271 C2.71876133 23.89570552 2.69262546 21.64001925 2.65942383 19.38232422 C2.65276199 18.09881073 2.64610016 16.81529724 2.63923645 15.4928894 C1.80002904 10.90732695 0.2572273 9.27906 -3 6 C-3.66 5.67 -4.32 5.34 -5 5 C-5 4.34 -5 3.68 -5 3 C-9.62 3 -14.24 3 -19 3 C-19 2.67 -19 2.34 -19 2 C-16.7722603 1.77692458 -14.54268636 1.57211822 -12.3125 1.375 C-11.07113281 1.25898438 -9.82976562 1.14296875 -8.55078125 1.0234375 C-5.07119831 1.00046996 -3.07515279 1.45948369 0 3 C0 2.01 0 1.02 0 0 Z " fill="#2C333F" transform="translate(147,142)"/>
<path d="M0 0 C0.66 0 1.32 0 2 0 C2 12.21 2 24.42 2 37 C1.01 36.67 0.02 36.34 -1 36 C-1.103125 35.34 -1.20625 34.68 -1.3125 34 C-1.92764822 30.83837164 -1.92764822 30.83837164 -3.625 27.5 C-6.22919048 20.78527356 -5.24262902 12.95124391 -2.5 6.4375 C-2.005 5.633125 -1.51 4.82875 -1 4 C-0.31363375 1.76474965 -0.31363375 1.76474965 0 0 Z " fill="#5B859D" transform="translate(54,69)"/>
<path d="M0 0 C3.87846648 3.33728511 5.46224943 5.57485274 6.125 10.6875 C5.58106006 15.19443095 4.15185536 17.53895585 1.6875 21.3125 C1.3575 20.3225 1.0275 19.3325 0.6875 18.3125 C1.3475 17.3225 2.0075 16.3325 2.6875 15.3125 C3.05917184 12.55229004 2.86600636 10.12397524 2.6875 7.3125 C2.0275 6.6525 1.3675 5.9925 0.6875 5.3125 C0.6875 4.3225 0.6875 3.3325 0.6875 2.3125 C-0.3025 2.6425 -1.2925 2.9725 -2.3125 3.3125 C-2.3125 2.6525 -2.3125 1.9925 -2.3125 1.3125 C-2.9725 1.3125 -3.6325 1.3125 -4.3125 1.3125 C-4.3125 1.9725 -4.3125 2.6325 -4.3125 3.3125 C-5.3953125 3.4053125 -5.3953125 3.4053125 -6.5 3.5 C-10.15907625 4.55706647 -11.80461602 6.51800071 -14.3125 9.3125 C-15.3025 8.9825 -16.2925 8.6525 -17.3125 8.3125 C-16.9825 10.2925 -16.6525 12.2725 -16.3125 14.3125 C-17.3025 14.9725 -18.2925 15.6325 -19.3125 16.3125 C-21.06023661 12.81702678 -20.1488668 9.03111548 -19.3125 5.3125 C-14.75608146 -2.07204039 -7.73519202 -3.94056952 0 0 Z " fill="#222328" transform="translate(143.3125,66.6875)"/>
<path d="M0 0 C3.96 0 7.92 0 12 0 C16 4 16 4 16.45410156 7.48339844 C16.45347228 8.85888657 16.43110599 10.23448254 16.390625 11.609375 C16.38496521 12.33618469 16.37930542 13.06299438 16.37347412 13.81182861 C16.35114553 16.12523245 16.30096048 18.4370672 16.25 20.75 C16.22993023 22.32159216 16.21168029 23.89320868 16.1953125 25.46484375 C16.15469859 29.31098138 16.07641572 33.15374213 16 37 C10.72 37 5.44 37 0 37 C0 24.79 0 12.58 0 0 Z M1 1 C1 11.89 1 22.78 1 34 C3.36613456 35.18306728 4.86780736 35.13354608 7.5 35.125 C8.2940625 35.12757813 9.088125 35.13015625 9.90625 35.1328125 C12.05918534 35.13277996 12.05918534 35.13277996 14 34 C14 23.77 14 13.54 14 3 C12.68 3 11.36 3 10 3 C10 2.34 10 1.68 10 1 C7.03 1 4.06 1 1 1 Z " fill="#628699" transform="translate(158,190)"/>
<path d="M0 0 C-3 2 -3 2 -5 3 C-5.50826149 5.21774779 -5.50826149 5.21774779 -5.6875 7.8125 C-5.77386719 8.68519531 -5.86023438 9.55789062 -5.94921875 10.45703125 C-5.99804407 12.90205286 -5.84840471 14.71187821 -5 17 C-4.34 17.33 -3.68 17.66 -3 18 C-3 18.66 -3 19.32 -3 20 C-3.763125 19.835 -4.52625 19.67 -5.3125 19.5 C-8.03596236 18.90854604 -8.03596236 18.90854604 -11 19 C-13.76728884 16.90457696 -14.53114139 15.08086417 -15 11.6875 C-15.30953989 8.1073499 -14.97782312 6.29027566 -12.6875 3.5 C-8.29570088 -0.58539453 -5.79744808 -0.09350723 0 0 Z " fill="#507E9E" transform="translate(117,8)"/>
<path d="M0 0 C5.75 1.75 5.75 1.75 8 4 C8.99 4 9.98 4 11 4 C11.66 4.33 12.32 4.66 13 5 C15.74528831 5.12258264 18.46686032 5.18571787 21.21337891 5.20532227 C22.48665794 5.22017166 22.48665794 5.22017166 23.78565979 5.23532104 C26.59926538 5.26697917 29.41288788 5.29171049 32.2265625 5.31640625 C34.17427008 5.33697206 36.12197316 5.35796843 38.06967163 5.37937927 C43.2021521 5.43463852 48.33467311 5.48403079 53.46722412 5.53222656 C58.70214455 5.58241348 63.93700594 5.63811419 69.171875 5.69335938 C79.44786626 5.80098806 89.72390873 5.90242256 100 6 C97.4880141 8.5119859 95.97367159 8.23524138 92.54733276 8.24884033 C91.78776276 8.24164978 91.02819275 8.23445923 90.24560547 8.22705078 C89.44552063 8.22734283 88.64543579 8.22763489 87.82110596 8.22793579 C85.16969047 8.22653956 82.51855406 8.2109647 79.8671875 8.1953125 C78.03158726 8.19158341 76.19598502 8.18873595 74.36038208 8.18673706 C69.52372768 8.1790924 64.68719297 8.1594368 59.85058594 8.1373291 C54.91733418 8.11688857 49.98406313 8.10773919 45.05078125 8.09765625 C35.36713485 8.07619167 25.68357737 8.04204572 16 8 C15.67 8.99 15.34 9.98 15 11 C13 10 13 10 12 7 C8.37114676 6.84850702 8.37114676 6.84850702 5 8 C2.20127563 5.47211993 0.54226981 3.79588866 0 0 Z " fill="#212129" transform="translate(56,117)"/>
<path d="M0 0 C0.66 0.33 1.32 0.66 2 1 C2 1.99 2 2.98 2 4 C1.34 4.66 0.68 5.32 0 6 C-1.67811011 8.84916537 -2.32171159 11.21999198 -2.625 14.5 C-2.69976562 15.2528125 -2.77453125 16.005625 -2.8515625 16.78125 C-2.98997364 18.85013232 -3 20.9264929 -3 23 C0.465 22.505 0.465 22.505 4 22 C4.12375 22.928125 4.12375 22.928125 4.25 23.875 C4.81258459 26.18437567 4.81258459 26.18437567 7.0625 27.25 C7.701875 27.4975 8.34125 27.745 9 28 C9 28.33 9 28.66 9 29 C3.56370977 28.56509678 0.2871779 27.3898616 -4 24 C-6.79028925 19.81456612 -7.19196684 15.99113774 -7 11 C-5.59949881 6.51237252 -3.41117102 3.20532449 0 0 Z " fill="#4F6D82" transform="translate(104,170)"/>
<path d="M0 0 C-0.33 0.99 -0.66 1.98 -1 3 C-2.27875 2.835 -3.5575 2.67 -4.875 2.5 C-12.88961253 1.67769149 -20.95428722 1.92112046 -29 2 C-29.33 0.68 -29.66 -0.64 -30 -2 C-26.27129547 -2.19756803 -22.54203204 -2.38128099 -18.8125 -2.5625 C-17.75740234 -2.61857422 -16.70230469 -2.67464844 -15.61523438 -2.73242188 C-14.59365234 -2.78076172 -13.57207031 -2.82910156 -12.51953125 -2.87890625 C-11.58214111 -2.9260376 -10.64475098 -2.97316895 -9.67895508 -3.02172852 C-5.64609925 -2.98901876 -2.91224205 -2.91224205 0 0 Z " fill="#211E1F" transform="translate(148,142)"/>
<path d="M0 0 C0.99 0 1.98 0 3 0 C4.46098845 2.9219769 4.11134901 5.49893475 4.09765625 8.7578125 C4.0962413 9.42086395 4.09482635 10.08391541 4.09336853 10.76705933 C4.08776754 12.88641863 4.075215 15.00567259 4.0625 17.125 C4.05748512 18.56119639 4.05292219 19.99739444 4.04882812 21.43359375 C4.03779782 24.95576345 4.02053259 28.47787145 4 32 C3.34 31.01 2.68 30.02 2 29 C1.34 29.33 0.68 29.66 0 30 C-0.19739706 25.93791759 -0.38118364 21.87532945 -0.5625 17.8125 C-0.61857422 16.66201172 -0.67464844 15.51152344 -0.73242188 14.32617188 C-0.78076172 13.21435547 -0.82910156 12.10253906 -0.87890625 10.95703125 C-0.9260376 9.93585205 -0.97316895 8.91467285 -1.02172852 7.86254883 C-1.00073689 5.09707955 -0.64017052 2.68354309 0 0 Z " fill="#1B1916" transform="translate(153,150)"/>
<path d="M0 0 C17.49 0 34.98 0 53 0 C53.495 2.475 53.495 2.475 54 5 C53.34 4.67 52.68 4.34 52 4 C52 3.34 52 2.68 52 2 C34.84 2 17.68 2 0 2 C0 1.34 0 0.68 0 0 Z " fill="#101B27" transform="translate(76,227)"/>
<path d="M0 0 C1.65 1.32 3.3 2.64 5 4 C5.33 3.67 5.66 3.34 6 3 C7.66617115 2.95936168 9.33388095 2.957279 11 3 C11.66 4.32 12.32 5.64 13 7 C32.8 7.495 32.8 7.495 53 8 C53 8.33 53 8.66 53 9 C46.55897132 9.12703233 40.11826698 9.21444812 33.67626953 9.2746582 C31.48604256 9.29976434 29.29589906 9.33385637 27.10595703 9.37719727 C23.95324078 9.43801907 20.80163447 9.46624923 17.6484375 9.48828125 C16.67321136 9.51408768 15.69798523 9.5398941 14.69320679 9.56648254 C10.18079473 9.56833386 6.9975964 9.50577346 3.38916016 6.61401367 C1.21889114 4.23949187 0.23366408 3.15446514 0 0 Z " fill="#100F0F" transform="translate(57,120)"/>
<path d="M0 0 C2.54776199 2.54776199 2.28400846 3.58363354 2.37890625 7.12109375 C2.41306641 8.13880859 2.44722656 9.15652344 2.48242188 10.20507812 C2.50884766 11.27177734 2.53527344 12.33847656 2.5625 13.4375 C2.62243934 15.54047823 2.68607598 17.64335525 2.75390625 19.74609375 C2.77783447 20.68122803 2.8017627 21.6163623 2.82641602 22.57983398 C2.90982339 25.14205098 2.90982339 25.14205098 4 28 C4.66 28 5.32 28 6 28 C6 29.98 6 31.96 6 34 C3.03 34.495 3.03 34.495 0 35 C0 23.45 0 11.9 0 0 Z " fill="#191D26" transform="translate(56,71)"/>
<path d="M0 0 C0.33 0.66 0.66 1.32 1 2 C0.24407959 3.63328552 0.24407959 3.63328552 -0.89941406 5.68139648 C-3.94347437 12.2599163 -3.60512566 18.98075916 -3.609375 26.09765625 C-3.6243814 27.5421278 -3.64111366 28.98658234 -3.65948486 30.43101501 C-3.70289553 34.20385594 -3.72309839 37.97646553 -3.73822021 41.74951172 C-3.75788705 45.61114026 -3.79984573 49.47252238 -3.83984375 53.33398438 C-3.91486039 60.88925624 -3.9653236 68.44442375 -4 76 C-4.33 76 -4.66 76 -5 76 C-5.04637541 67.22027243 -5.08189564 58.44058715 -5.10362434 49.66076374 C-5.11405392 45.58377564 -5.12819802 41.50687145 -5.15087891 37.42993164 C-5.17263677 33.49420028 -5.18457484 29.55854955 -5.18975449 25.62276268 C-5.19344496 24.12248656 -5.20065155 22.62221476 -5.21146011 21.12197304 C-5.22601431 19.01782376 -5.22797632 16.91400611 -5.22705078 14.80981445 C-5.231492 13.61290482 -5.23593323 12.41599518 -5.24050903 11.18281555 C-4.87882087 6.3963562 -3.65150982 3.15357666 0 0 Z " fill="#819EB0" transform="translate(81,148)"/>
<path d="M0 0 C0.33 0 0.66 0 1 0 C2.5970516 8.78378378 2.5970516 8.78378378 0.3125 13.4375 C-1.68381049 15.64962784 -3.50116863 17.39360841 -6 19 C-7.32 17.02 -8.64 15.04 -10 13 C-9.195625 12.62875 -8.39125 12.2575 -7.5625 11.875 C-4.68827104 10.1890663 -4.68827104 10.1890663 -4.1875 6.8125 C-4.125625 5.884375 -4.06375 4.95625 -4 4 C-3.01 3.67 -2.02 3.34 -1 3 C-0.67 2.01 -0.34 1.02 0 0 Z " fill="#1B1B1A" transform="translate(129,15)"/>
<path d="M0 0 C0 0.66 0 1.32 0 2 C0.66 2.66 1.32 3.32 2 4 C0.02 4.33 -1.96 4.66 -4 5 C-4 5.99 -4 6.98 -4 8 C-4.61875 8.268125 -5.2375 8.53625 -5.875 8.8125 C-8.2995233 9.95556848 -8.2995233 9.95556848 -10 13 C-11.65 11.68 -13.3 10.36 -15 9 C-10.80885944 3.4529022 -7.37074247 0 0 0 Z " fill="#242122" transform="translate(112,0)"/>
<path d="M0 0 C3 0.25 3 0.25 5 2.25 C5.25 5.25 5.25 5.25 5 8.25 C3 10.25 3 10.25 0.5625 10.5625 C-2 10.25 -2 10.25 -3.8125 9.0625 C-5.40199375 6.6364306 -5.36487512 5.09602594 -5 2.25 C-3 0.25 -3 0.25 0 0 Z " fill="#D0E6EE" transform="translate(90,72.75)"/>
<path d="M0 0 C0.66 0.33 1.32 0.66 2 1 C2.99 1 3.98 1 5 1 C6.66666667 1 8.33333333 1 10 1 C10 2.65 10 4.3 10 6 C7.69 6.66 5.38 7.32 3 8 C2.67 9.98 2.34 11.96 2 14 C0.35 14.33 -1.3 14.66 -3 15 C-3 13.68 -3 12.36 -3 11 C-2.34 10.67 -1.68 10.34 -1 10 C-1.20625 8.906875 -1.4125 7.81375 -1.625 6.6875 C-2 3 -2 3 0 0 Z " fill="#1E1B1F" transform="translate(83,67)"/>
<path d="M0 0 C3 0.25 3 0.25 5 2.25 C5.3125 5.25 5.3125 5.25 5 8.25 C2 10.25 2 10.25 -0.5625 10 C-3 9.25 -3 9.25 -5 7.25 C-5.25 4.75 -5.25 4.75 -5 2.25 C-3 0.25 -3 0.25 0 0 Z " fill="#CBE6F4" transform="translate(136,72.75)"/>
<path d="M0 0 C0.66 0.66 1.32 1.32 2 2 C2.66 1.67 3.32 1.34 4 1 C5.76016972 12.82374879 5.76016972 12.82374879 3.1875 16.6875 C1 19 1 19 -1 20 C-1.33 19.01 -1.66 18.02 -2 17 C-2.33 16.34 -2.66 15.68 -3 15 C-2.71125 14.34 -2.4225 13.68 -2.125 13 C-0.53228463 8.75275902 -0.33200418 4.49953031 0 0 Z " fill="#211E1C" transform="translate(130,179)"/>
<path d="M0 0 C0.92941406 0.08378906 1.85882813 0.16757813 2.81640625 0.25390625 C11.95417654 1.04178257 11.95417654 1.04178257 21 0 C20.34 1.65 19.68 3.3 19 5 C16.95840905 5.0272616 14.91671037 5.04651345 12.875 5.0625 C11.73804687 5.07410156 10.60109375 5.08570313 9.4296875 5.09765625 C6.1870844 5.005327 3.18067388 4.61389906 0 4 C0 2.68 0 1.36 0 0 Z " fill="#241C1A" transform="translate(102,199)"/>
<path d="M0 0 C6.06292614 -0.41813284 9.19707988 -0.13274522 14 4 C16.35125704 6.89988368 16.9558484 8.65940197 17.4375 12.375 C16.89356006 16.88193095 15.46435536 19.22645585 13 23 C12.67 22.01 12.34 21.02 12 20 C12.66 19.01 13.32 18.02 14 17 C14.37167184 14.23979004 14.17850636 11.81147524 14 9 C13.34 8.34 12.68 7.68 12 7 C12 6.01 12 5.02 12 4 C11.01 4.33 10.02 4.66 9 5 C9 4.34 9 3.68 9 3 C8.01 3.33 7.02 3.66 6 4 C2.8125 3.0625 2.8125 3.0625 0 2 C0 1.34 0 0.68 0 0 Z " fill="#152430" transform="translate(132,65)"/>
<path d="M0 0 C-0.99 0.66 -1.98 1.32 -3 2 C-3.99 2.7734375 -3.99 2.7734375 -5 3.5625 C-7 5 -7 5 -10 6 C-10.144375 6.78375 -10.28875 7.5675 -10.4375 8.375 C-11 11 -11 11 -12 13 C-11.71887936 15.00800456 -11.38932033 17.01014051 -11 19 C-14.40285167 16.08723294 -14.83169082 13.63417032 -15.20703125 9.29296875 C-14.8470741 5.30627348 -12.87479729 3.67423004 -10 1 C-6.78548731 -0.60725635 -3.56387464 -0.05748185 0 0 Z " fill="#577A8D" transform="translate(117,8)"/>
<path d="M0 0 C5.35230041 2.5353002 8.71080516 6.59908577 11 12 C11.265625 14.2890625 11.265625 14.2890625 11.25 16.625 C11.25515625 17.40101562 11.2603125 18.17703125 11.265625 18.9765625 C11 21 11 21 9 23 C8.89042969 22.08476563 8.78085938 21.16953125 8.66796875 20.2265625 C8.50941406 19.03804687 8.35085937 17.84953125 8.1875 16.625 C8.03667969 15.44164063 7.88585937 14.25828125 7.73046875 13.0390625 C7.29300666 9.70467916 7.29300666 9.70467916 4 8 C4 7.34 4 6.68 4 6 C3.34 6 2.68 6 2 6 C2 5.01 2 4.02 2 3 C0.68 3.33 -0.64 3.66 -2 4 C-2 3.01 -2 2.02 -2 1 C-1.34 0.67 -0.68 0.34 0 0 Z " fill="#64899F" transform="translate(174,70)"/>
<path d="M0 0 C1.5 1.0625 1.5 1.0625 3 3 C3.55733091 8.0159782 2.9673946 10.91983243 0 15 C-0.33 14.34 -0.66 13.68 -1 13 C-2.32 13 -3.64 13 -5 13 C-5.66 12.34 -6.32 11.68 -7 11 C-6.525625 10.54625 -6.05125 10.0925 -5.5625 9.625 C-3.90972192 8.06741796 -3.90972192 8.06741796 -3 6 C-2.34 6.33 -1.68 6.66 -1 7 C-0.67 4.69 -0.34 2.38 0 0 Z " fill="#1D1C1B" transform="translate(100,71)"/>
<path d="M0 0 C2.62857482 0.45061283 4.88040392 0.94505045 7.3125 2.0625 C13.20586513 4.11832505 18.33032794 3.19055512 24 1 C25.32911682 0.65023242 26.66082739 0.30903983 28 0 C28 1.32 28 2.64 28 4 C24.9317362 4.89749822 22.20730024 5.11711768 19.015625 5.09765625 C18.08105469 5.09443359 17.14648438 5.09121094 16.18359375 5.08789062 C15.21550781 5.07951172 14.24742188 5.07113281 13.25 5.0625 C12.26644531 5.05798828 11.28289062 5.05347656 10.26953125 5.04882812 C7.84629209 5.03706483 5.42317727 5.02062684 3 5 C3 4.01 3 3.02 3 2 C2.01 1.67 1.02 1.34 0 1 C0 0.67 0 0.34 0 0 Z " fill="#9BC2DC" transform="translate(98,111)"/>
<path d="M0 0 C1.32 0 2.64 0 4 0 C4.625 2.875 4.625 2.875 5 6 C4.34 6.66 3.68 7.32 3 8 C2.67 8.680625 2.34 9.36125 2 10.0625 C1 12 1 12 -1 13 C-2.54023996 13.06950541 -4.08334988 13.08452357 -5.625 13.0625 C-6.85089844 13.04896484 -6.85089844 13.04896484 -8.1015625 13.03515625 C-9.04128906 13.01775391 -9.04128906 13.01775391 -10 13 C-10 12.67 -10 12.34 -10 12 C-7.36 11.67 -4.72 11.34 -2 11 C-2 9.68 -2 8.36 -2 7 C-2 3.89448334 -1.4606285 2.64738916 0 0 Z " fill="#19171B" transform="translate(142,77)"/>
<path d="M0 0 C4.00180712 1.77858094 6.76459712 3.15013949 9 7 C9 7.66 9 8.32 9 9 C8.01 9 7.02 9 6 9 C5.67 9.66 5.34 10.32 5 11 C4.01 11.33 3.02 11.66 2 12 C0.4375 10.1875 0.4375 10.1875 -1 8 C-0.67 7.01 -0.34 6.02 0 5 C0.99 5 1.98 5 3 5 C1.68 4.34 0.36 3.68 -1 3 C-0.67 2.01 -0.34 1.02 0 0 Z " fill="#212225" transform="translate(161,46)"/>
<path d="M0 0 C0.66 0.33 1.32 0.66 2 1 C2.55092628 5.49923132 2.24093046 8.32198782 -0.4375 11.9375 C-2.38522576 14.00579926 -3.50778288 14.89117649 -6.296875 15.5078125 C-10.46070351 15.60306348 -12.45789856 15.36140096 -16 13 C-15.67 12.34 -15.34 11.68 -15 11 C-11.535 12.485 -11.535 12.485 -8 14 C-8 13.34 -8 12.68 -8 12 C-6.35 11.67 -4.7 11.34 -3 11 C-3 10.34 -3 9.68 -3 9 C-2.34 9 -1.68 9 -1 9 C-1.020625 7.88625 -1.04125 6.7725 -1.0625 5.625 C-1 2 -1 2 0 0 Z " fill="#678A9E" transform="translate(122,14)"/>
<path d="M0 0 C0.66 0 1.32 0 2 0 C2.33 0.99 2.66 1.98 3 3 C5.64 3.33 8.28 3.66 11 4 C11 4.33 11 4.66 11 5 C7.04 5 3.08 5 -1 5 C-1 16.22 -1 27.44 -1 39 C-1.33 39 -1.66 39 -2 39 C-2.04949353 34.08871933 -2.08576382 29.17758434 -2.10986328 24.26611328 C-2.1199115 22.59584015 -2.13355236 20.92558458 -2.15087891 19.25537109 C-2.17517926 16.85249496 -2.18649487 14.44985173 -2.1953125 12.046875 C-2.20563507 11.30193787 -2.21595764 10.55700073 -2.22659302 9.78948975 C-2.22740368 6.03072358 -2.10367118 3.18826289 0 0 Z " fill="#1F1321" transform="translate(158,185)"/>
<path d="M0 0 C0.99 0 1.98 0 3 0 C3 2.97 3 5.94 3 9 C10.59 9 18.18 9 26 9 C26 9.33 26 9.66 26 10 C18.08 10 10.16 10 2 10 C1.67 9.01 1.34 8.02 1 7 C0.67 7.66 0.34 8.32 0 9 C-0.99 9 -1.98 9 -3 9 C-3.125 6.625 -3.125 6.625 -3 4 C-2.34 3.34 -1.68 2.68 -1 2 C-0.67 1.34 -0.34 0.68 0 0 Z " fill="#494748" transform="translate(114,129)"/>
<path d="M0 0 C1.875 0.5625 1.875 0.5625 4 2 C6.47949199 7.95078077 7.24298846 14.96208374 5.32421875 21.1953125 C4.62539306 22.83142573 3.8229547 24.42267016 3 26 C2.67 26 2.34 26 2 26 C1.875 20.25 1.875 20.25 3 18 C3.23604169 15.69589956 3.23604169 15.69589956 3.25 13.125 C3.27578125 12.26132813 3.3015625 11.39765625 3.328125 10.5078125 C2.9373365 7.52107185 1.80713317 6.34927313 0 4 C0 2.68 0 1.36 0 0 Z " fill="#1A232D" transform="translate(124,170)"/>
<path d="M0 0 C0.99 0.66 1.98 1.32 3 2 C3.1875 4.625 3.1875 4.625 3 7 C2.05125 7.45375 1.1025 7.9075 0.125 8.375 C-3.00313679 9.80238254 -3.00313679 9.80238254 -5 12 C-6.01397631 8.77371174 -6.20240769 7.43517654 -4.75 4.3125 C-3 2 -3 2 0 0 Z " fill="#252323" transform="translate(51,184)"/>
<path d="M0 0 C3.375 -0.125 3.375 -0.125 7 0 C9 2 9 2 9.125 4.625 C9.08375 5.40875 9.0425 6.1925 9 7 C9.66 7.33 10.32 7.66 11 8 C11.75 10.4375 11.75 10.4375 12 13 C11.34 13.66 10.68 14.32 10 15 C9.32845067 13.71086513 8.66291141 12.41859796 8 11.125 C7.62875 10.40570313 7.2575 9.68640625 6.875 8.9453125 C6 7 6 7 6 5 C5.38125 4.731875 4.7625 4.46375 4.125 4.1875 C2 3 2 3 0 0 Z " fill="#95BEDA" transform="translate(125,163)"/>
<path d="M0 0 C0.60134766 0.63228516 0.60134766 0.63228516 1.21484375 1.27734375 C5.90956687 5.80173678 9.52060152 6.97061497 16 7 C16 7.33 16 7.66 16 8 C13.36 8 10.72 8 8 8 C7.67 8.99 7.34 9.98 7 11 C7 10.34 7 9.68 7 9 C3.9254644 9.7763932 3.9254644 9.7763932 2 12 C1.46809459 10.56656 0.94984742 9.12804633 0.4375 7.6875 C0.14746094 6.88699219 -0.14257812 6.08648437 -0.44140625 5.26171875 C-1 3 -1 3 0 0 Z " fill="#93BFDD" transform="translate(124,83)"/>
<path d="M0 0 C1.09054688 0.02320313 2.18109375 0.04640625 3.3046875 0.0703125 C4.40039062 0.08835938 5.49609375 0.10640625 6.625 0.125 C7.46804687 0.14820313 8.31109375 0.17140625 9.1796875 0.1953125 C9.1796875 0.5253125 9.1796875 0.8553125 9.1796875 1.1953125 C6.8696875 1.5253125 4.5596875 1.8553125 2.1796875 2.1953125 C1.8496875 13.0853125 1.5196875 23.9753125 1.1796875 35.1953125 C0.8496875 35.1953125 0.5196875 35.1953125 0.1796875 35.1953125 C0.1796875 24.3053125 0.1796875 13.4153125 0.1796875 2.1953125 C-1.4703125 2.1953125 -3.1203125 2.1953125 -4.8203125 2.1953125 C-2.8203125 0.1953125 -2.8203125 0.1953125 0 0 Z " fill="#486C82" transform="translate(58.8203125,189.8046875)"/>
<path d="M0 0 C0.33 0 0.66 0 1 0 C1 6.27 1 12.54 1 19 C-3.22984725 14.77015275 -3.937419 10.97130163 -4.125 5.0625 C-4.08375 4.051875 -4.0425 3.04125 -4 2 C-3.01 2.33 -2.02 2.66 -1 3 C-0.67 2.01 -0.34 1.02 0 0 Z " fill="#5187A4" transform="translate(53,83)"/>
<path d="M0 0 C2.31 0.33 4.62 0.66 7 1 C6.01 1.495 6.01 1.495 5 2 C5 4.31 5 6.62 5 9 C5.99 8.67 6.98 8.34 8 8 C8 10.64 8 13.28 8 16 C7.67 15.01 7.34 14.02 7 13 C5.68 13 4.36 13 3 13 C2.67 13.99 2.34 14.98 2 16 C1.87356322 8.4137931 1.87356322 8.4137931 2.6875 5.75 C3.2377411 3.81160398 3.2377411 3.81160398 1.5625 1.75 C1.046875 1.1725 0.53125 0.595 0 0 Z " fill="#18171A" transform="translate(108,29)"/>
<path d="M0 0 C3.33717549 1.3809002 5.22301036 2.8201238 7 6 C6.875 8.1875 6.875 8.1875 6 10 C5.01 10.33 4.02 10.66 3 11 C2.34 10.34 1.68 9.68 1 9 C1 8.01 1 7.02 1 6 C0.34 6 -0.32 6 -1 6 C-0.67 4.02 -0.34 2.04 0 0 Z " fill="#26211D" transform="translate(123,4)"/>
<path d="M0 0 C0.99 1.32 1.98 2.64 3 4 C2.01 5.98 1.02 7.96 0 10 C-0.66 10 -1.32 10 -2 10 C-2 11.65 -2 13.3 -2 15 C-3.32 15.33 -4.64 15.66 -6 16 C-6 15.34 -6 14.68 -6 14 C-6.66 13.67 -7.32 13.34 -8 13 C-7.236875 12.34 -6.47375 11.68 -5.6875 11 C-2.43223306 7.79097265 -1.38543586 4.30214295 0 0 Z " fill="#97BAD4" transform="translate(135,188)"/>
<path d="M0 0 C0.33 0 0.66 0 1 0 C1 2.97 1 5.94 1 9 C9.25 9 17.5 9 26 9 C26 9.33 26 9.66 26 10 C18.41 10 10.82 10 3 10 C2.67 10.66 2.34 11.32 2 12 C-0.5625 12.625 -0.5625 12.625 -3 13 C-3 11.68 -3 10.36 -3 9 C-2.34 8.67 -1.68 8.34 -1 8 C-0.53476937 6.10466658 -0.53476937 6.10466658 -0.375 3.9375 C-0.25125 2.638125 -0.1275 1.33875 0 0 Z " fill="#141112" transform="translate(115,130)"/>
<path d="M0 0 C0.5775 0.4125 1.155 0.825 1.75 1.25 C2.74 1.25 3.73 1.25 4.75 1.25 C0.36487125 4.56558515 -2.62458159 5.79996653 -8.25 6.25 C-8.58 5.26 -8.91 4.27 -9.25 3.25 C-2.83441558 -0.94480519 -2.83441558 -0.94480519 0 0 Z " fill="#231C1C" transform="translate(178.25,106.75)"/>
<path d="M0 0 C0.33 0 0.66 0 1 0 C1.03738281 1.04800781 1.07476562 2.09601563 1.11328125 3.17578125 C1.17894515 4.55472305 1.24539235 5.93362771 1.3125 7.3125 C1.33505859 8.00279297 1.35761719 8.69308594 1.38085938 9.40429688 C1.5836997 13.49206734 1.5836997 13.49206734 3.54296875 16.98046875 C4.02378906 17.31691406 4.50460938 17.65335938 5 18 C4.67 18.66 4.34 19.32 4 20 C3.01 19.67 2.02 19.34 1 19 C-1.41099113 13.82083386 -2.55637504 9.78630044 -2 4 C-1 1.5625 -1 1.5625 0 0 Z " fill="#516C7B" transform="translate(43,79)"/>
<path d="M0 0 C0.78375 0.33 1.5675 0.66 2.375 1 C4.84332497 2.11866511 4.84332497 2.11866511 7 2 C7 2.66 7 3.32 7 4 C7.5775 3.525625 8.155 3.05125 8.75 2.5625 C10.92582084 1.0515133 12.42602448 0.45963849 15 0 C15 0.66 15 1.32 15 2 C15.99 2.33 16.98 2.66 18 3 C15.27106501 5.72893499 13.07835054 5.74859245 9.328125 6.10546875 C5.70583571 5.94137175 3.66559736 4.33239769 1 2 C0.67 1.34 0.34 0.68 0 0 Z " fill="#161F29" transform="translate(80,85)"/>
<path d="M0 0 C1.32 0 2.64 0 4 0 C3.74445946 1.46109063 3.46999628 2.91888096 3.1875 4.375 C3.03667969 5.18710938 2.88585938 5.99921875 2.73046875 6.8359375 C2 9 2 9 -1 11 C-2.19232613 13.05003955 -2.19232613 13.05003955 -3 15 C-3.3152595 9.01006953 -2.68219822 5.36439644 0 0 Z " fill="#201A1B" transform="translate(37,75)"/>
<path d="M0 0 C1.32 0.66 2.64 1.32 4 2 C4 3.32 4 4.64 4 6 C5.41977909 8.22743787 5.41977909 8.22743787 7 10 C5.68 10.33 4.36 10.66 3 11 C3 9.68 3 8.36 3 7 C1.68 7 0.36 7 -1 7 C-3.75 5.5 -3.75 5.5 -6 4 C-2.25 2 -2.25 2 0 2 C0 1.34 0 0.68 0 0 Z " fill="#1B191C" transform="translate(125,165)"/>
<path d="M0 0 C-2.76223278 2.76223278 -5.20706617 2.57856291 -9 3 C-8.67 2.01 -8.34 1.02 -8 0 C-10.64 0 -13.28 0 -16 0 C-15 -2 -15 -2 -13.3125 -2.6875 C-8.52229145 -3.33482548 -4.34636433 -1.91751367 0 0 Z " fill="#281C1B" transform="translate(125,166)"/>
<path d="M0 0 C1.2065625 0.0309375 1.2065625 0.0309375 2.4375 0.0625 C2.7675 0.7225 3.0975 1.3825 3.4375 2.0625 C1.7875 2.3925 0.1375 2.7225 -1.5625 3.0625 C-1.8925 13.2925 -2.2225 23.5225 -2.5625 34.0625 C-2.8925 34.0625 -3.2225 34.0625 -3.5625 34.0625 C-3.58715288 29.38110746 -3.60533739 24.69975241 -3.61743164 20.01831055 C-3.62247157 18.42455386 -3.6293035 16.83080181 -3.63793945 15.23706055 C-3.65001999 12.95099747 -3.65573155 10.66499533 -3.66015625 8.37890625 C-3.66531754 7.66223282 -3.67047882 6.94555939 -3.67579651 6.20716858 C-3.67599263 4.49186328 -3.62442007 2.77668734 -3.5625 1.0625 C-2.5625 0.0625 -2.5625 0.0625 0 0 Z " fill="#5883A1" transform="translate(63.5625,190.9375)"/>
<path d="M0 0 C2.37570543 -0.0816082 4.74855841 -0.14077222 7.125 -0.1875 C7.79015625 -0.21263672 8.4553125 -0.23777344 9.140625 -0.26367188 C13.86902292 -0.33320714 16.95121479 0.59721625 21 3 C20.34 3.66 19.68 4.32 19 5 C18.236875 4.690625 17.47375 4.38125 16.6875 4.0625 C12.54278153 2.86825908 8.6820746 2.57825544 4.390625 2.34375 C2 2 2 2 0 0 Z " fill="#1C2832" transform="translate(105,161)"/>
<path d="M0 0 C0.66 0.33 1.32 0.66 2 1 C0.63620082 5.46334277 -1.27559332 7.27482438 -5 10 C-5.7115625 10.8353125 -5.7115625 10.8353125 -6.4375 11.6875 C-8.74144195 13.62281124 -11.07295311 13.67477257 -14 14 C-14.33 13.34 -14.66 12.68 -15 12 C-13.948125 11.5875 -12.89625 11.175 -11.8125 10.75 C-6.27204887 8.35473426 -2.83892938 5.3790241 0 0 Z " fill="#16212E" transform="translate(184,94)"/>
<path d="M0 0 C0.66 0.33 1.32 0.66 2 1 C2.99 1.33 3.98 1.66 5 2 C5.33 4.31 5.66 6.62 6 9 C3.69 9 1.38 9 -1 9 C-0.979375 8.05125 -0.95875 7.1025 -0.9375 6.125 C-0.77448174 3.09333717 -0.77448174 3.09333717 -2 1 C-1.34 0.67 -0.68 0.34 0 0 Z " fill="#A3C8D8" transform="translate(130,225)"/>
<path d="M0 0 C4.875 0.875 4.875 0.875 6 2 C5.91015699 3.85772162 5.75388139 5.71247985 5.5625 7.5625 C5.46066406 8.57441406 5.35882813 9.58632812 5.25390625 10.62890625 C5.17011719 11.41136719 5.08632812 12.19382813 5 13 C4.67 13 4.34 13 4 13 C3.67 11.35 3.34 9.7 3 8 C2.01 8.66 1.02 9.32 0 10 C0.29296875 7.98177083 0.5859375 5.96354167 0.87890625 3.9453125 C1.1684297 1.91859333 1.1684297 1.91859333 0 0 Z " fill="#181A1D" transform="translate(92,174)"/>
<path d="M0 0 C2.5 0.0625 2.5 0.0625 5 1 C6.3125 3.5625 6.3125 3.5625 7 6 C6.01 6.495 6.01 6.495 5 7 C5 6.01 5 5.02 5 4 C4.01 3.67 3.02 3.34 2 3 C2 4.65 2 6.3 2 8 C1.01 8.33 0.02 8.66 -1 9 C-1.625 5.625 -1.625 5.625 -2 2 C-1.34 1.34 -0.68 0.68 0 0 Z " fill="#1A2630" transform="translate(97,97)"/>
<path d="M0 0 C4.62 0 9.24 0 14 0 C14 0.66 14 1.32 14 2 C11.5 3.625 11.5 3.625 9 5 C9 4.34 9 3.68 9 3 C7.700625 2.87625 6.40125 2.7525 5.0625 2.625 C2.84765625 2.4140625 2.84765625 2.4140625 1 2 C0.67 1.34 0.34 0.68 0 0 Z " fill="#131E27" transform="translate(159,227)"/>
<path d="M0 0 C3.625 0.1875 3.625 0.1875 6.625 2.1875 C4.315 2.8475 2.005 3.5075 -0.375 4.1875 C-0.375 5.1775 -0.375 6.1675 -0.375 7.1875 C-1.365 7.1875 -2.355 7.1875 -3.375 7.1875 C-3.75633299 5.1960944 -4.08825582 3.19470923 -4.375 1.1875 C-3.375 0.1875 -3.375 0.1875 0 0 Z " fill="#1C222B" transform="translate(139.375,226.8125)"/>
<path d="M0 0 C1.125 1.75 1.125 1.75 2 4 C1.03284133 6.65968633 -0.41948242 8.62922362 -2 11 C-3.32 11 -4.64 11 -6 11 C-4.74194623 6.49197399 -3.09592835 3.5087188 0 0 Z " fill="#2A2625" transform="translate(75,143)"/>
<path d="M0 0 C2.86697492 1.28519565 4.97607712 2.57129254 7 5 C7 5.66 7 6.32 7 7 C5 8.625 5 8.625 3 10 C2.67 9.34 2.34 8.68 2 8 C1.01 7.34 0.02 6.68 -1 6 C-0.67 5.67 -0.34 5.34 0 5 C0.04063832 3.33382885 0.042721 1.66611905 0 0 Z " fill="#1C1B1D" transform="translate(98,99)"/>
<path d="M0 0 C0.99 0 1.98 0 3 0 C3.66 2.31 4.32 4.62 5 7 C4.34 7.66 3.68 8.32 3 9 C2.01 9 1.02 9 0 9 C0.33 8.01 0.66 7.02 1 6 C0.72428861 3.99124558 0.39764263 1.98821313 0 0 Z M-2 9 C-1.01 9.495 -1.01 9.495 0 10 C-0.33 10.99 -0.66 11.98 -1 13 C-1.33 11.68 -1.66 10.36 -2 9 Z " fill="#8DBDDC" transform="translate(92,90)"/>
<path d="M0 0 C0.33 0.99 0.66 1.98 1 3 C0.67 3.66 0.34 4.32 0 5 C-2.06640625 5.6328125 -2.06640625 5.6328125 -4.5625 6.125 C-5.38878906 6.29257813 -6.21507812 6.46015625 -7.06640625 6.6328125 C-7.70449219 6.75398438 -8.34257812 6.87515625 -9 7 C-8.07347299 5.82460004 -7.13336613 4.65989423 -6.1875 3.5 C-5.66542969 2.8503125 -5.14335937 2.200625 -4.60546875 1.53125 C-3 0 -3 0 0 0 Z " fill="#191A1B" transform="translate(177,63)"/>
<path d="M0 0 C2 2.6875 2 2.6875 2 4.6875 C1.01 5.0175 0.02 5.3475 -1 5.6875 C-1 4.6975 -1 3.7075 -1 2.6875 C-4.3 1.6975 -7.6 0.7075 -11 -0.3125 C-11 -0.6425 -11 -0.9725 -11 -1.3125 C-3.76950481 -2.90565996 -3.76950481 -2.90565996 0 0 Z " fill="#23272C" transform="translate(121,30.3125)"/>
<path d="M0 0 C0 0.66 0 1.32 0 2 C-0.66 2 -1.32 2 -2 2 C-2.66 4.31 -3.32 6.62 -4 9 C-4.433125 8.505 -4.86625 8.01 -5.3125 7.5 C-6.99740483 5.66781808 -6.99740483 5.66781808 -10 6 C-8.71283353 4.99421411 -7.42011342 3.99553202 -6.125 3 C-5.40570313 2.443125 -4.68640625 1.88625 -3.9453125 1.3125 C-2 0 -2 0 0 0 Z " fill="#202932" transform="translate(105,162)"/>
<path d="M0 0 C0.99 0.33 1.98 0.66 3 1 C2.875 2.875 2.875 2.875 2 5 C-0.9375 6.3125 -0.9375 6.3125 -4 7 C-4.66 6.67 -5.32 6.34 -6 6 C-5.34 4.68 -4.68 3.36 -4 2 C-3.34 2 -2.68 2 -2 2 C-1.34 1.34 -0.68 0.68 0 0 Z " fill="#292325" transform="translate(183,102)"/>
<path d="M0 0 C1 4 1 4 1 4 Z M-2 3 C-1.34 3.33 -0.68 3.66 0 4 C-0.33 6.64 -0.66 9.28 -1 12 C-2.98 12.33 -4.96 12.66 -7 13 C-7 10 -7 10 -5.0625 8 C-4.381875 7.34 -3.70125 6.68 -3 6 C-2.67 5.01 -2.34 4.02 -2 3 Z " fill="#94BDD8" transform="translate(104,78)"/>
<path d="M0 0 C1.98 0 3.96 0 6 0 C6 1.65 6 3.3 6 5 C2.88742431 5 0.89234315 4.82638376 -2 4 C-1.34 2.68 -0.68 1.36 0 0 Z " fill="#C7DDE6" transform="translate(87,73)"/>
<path d="M0 0 C3.65316671 1.24976756 4.78065836 1.67098753 7 5 C3.52176885 6.15941038 1.54104422 5.70820884 -2 5 C-1.34 3.35 -0.68 1.7 0 0 Z " fill="#211D1D" transform="translate(179,65)"/>
<path d="M0 0 C1.65 0.33 3.3 0.66 5 1 C5 2.98 5 4.96 5 7 C3.02 7.33 1.04 7.66 -1 8 C-0.67 5.36 -0.34 2.72 0 0 Z " fill="#191615" transform="translate(165,54)"/>
<path d="M0 0 C0.66 0 1.32 0 2 0 C2 0.66 2 1.32 2 2 C2.66 2.33 3.32 2.66 4 3 C3.34 3 2.68 3 2 3 C2.33 4.32 2.66 5.64 3 7 C-1.455 6.01 -1.455 6.01 -6 5 C-6 4.01 -6 3.02 -6 2 C-4.02 2 -2.04 2 0 2 C0 1.34 0 0.68 0 0 Z " fill="#1E1B1C" transform="translate(139,68)"/>
<path d="M0 0 C4.62 0 9.24 0 14 0 C13.67 0.66 13.34 1.32 13 2 C7.9511624 3.00976752 4.6850826 3.48895013 0 1 C0 0.67 0 0.34 0 0 Z " fill="#111F27" transform="translate(53,227)"/>
<path d="M0 0 C2.40072955 2.88087546 4.47291037 5.56404834 6 9 C5.34 9.66 4.68 10.32 4 11 C0.77195053 8.18847304 -0.6588327 6.32145242 -1 2 C-0.67 1.34 -0.34 0.68 0 0 Z " fill="#1D2630" transform="translate(42,94)"/>
<path d="M0 0 C1.010625 0.0825 2.02125 0.165 3.0625 0.25 C3.7225 1.24 4.3825 2.23 5.0625 3.25 C2.11410959 4.2327968 0.12119028 4.25 -2.9375 4.25 C-3.9275 4.745 -3.9275 4.745 -4.9375 5.25 C-3.82553359 0.32557733 -3.82553359 0.32557733 0 0 Z " fill="#C7DEE5" transform="translate(135.9375,72.75)"/>
<path d="M0 0 C1.44197868 2.88395737 1.58833581 5.82430479 2 9 C0.68 8.01 -0.64 7.02 -2 6 C-2 8.31 -2 10.62 -2 13 C-2.66 12.67 -3.32 12.34 -4 12 C-3.28571429 3.42857143 -3.28571429 3.42857143 0 0 Z " fill="#23313B" transform="translate(81,68)"/>
<path d="M0 0 C3.11229733 2.54642509 3.77883932 5.25510724 5 9 C5.66 9.33 6.32 9.66 7 10 C6.01 10.33 5.02 10.66 4 11 C1.4375 8.875 1.4375 8.875 -1 6 C-0.8125 2.6875 -0.8125 2.6875 0 0 Z " fill="#1C222C" transform="translate(100,18)"/>
<path d="M0 0 C0.99 0.33 1.98 0.66 3 1 C2.71905418 2.8141927 2.42493567 4.62635001 2.125 6.4375 C1.88136719 7.95150391 1.88136719 7.95150391 1.6328125 9.49609375 C1.42398438 10.32238281 1.21515625 11.14867187 1 12 C0.01 12.495 0.01 12.495 -1 13 C-1.0272415 11.58344207 -1.04650467 10.16672955 -1.0625 8.75 C-1.07410156 7.96109375 -1.08570312 7.1721875 -1.09765625 6.359375 C-1.00385306 4.09308998 -0.63241063 2.1711105 0 0 Z " fill="#1F2531" transform="translate(91,174)"/>
<path d="M0 0 C0.99 0.33 1.98 0.66 3 1 C3 1.66 3 2.32 3 3 C2.67 3.33 2.34 3.66 2 4 C2.99 4 3.98 4 5 4 C5.33 3.34 5.66 2.68 6 2 C6.33 3.32 6.66 4.64 7 6 C4.03 6 1.06 6 -2 6 C-1.34 5.67 -0.68 5.34 0 5 C0 4.34 0 3.68 0 3 C-0.66 2.67 -1.32 2.34 -2 2 C-1.34 2 -0.68 2 0 2 C0 1.34 0 0.68 0 0 Z " fill="#232122" transform="translate(111,138)"/>
<path d="M0 0 C0.66 0.33 1.32 0.66 2 1 C1.34 3.31 0.68 5.62 0 8 C-1.65 8.33 -3.3 8.66 -5 9 C-5 5 -5 5 -2.5 2.25 C-1.675 1.5075 -0.85 0.765 0 0 Z " fill="#151515" transform="translate(85,73)"/>
<path d="M0 0 C2.60535808 2.27451896 2.96986767 2.728809 3.375 6.375 C2.98745703 10.12124873 2.18828139 11.99111308 0 15 C0 10 0 5 0 0 Z " fill="#0F1D28" transform="translate(100,71)"/>
<path d="M0 0 C4.71014493 3.38164251 4.71014493 3.38164251 5.9375 6 C6.01559731 8.49911402 5.28317658 9.8865327 4 12 C3.566875 10.2984375 3.566875 10.2984375 3.125 8.5625 C2.75375 7.386875 2.3825 6.21125 2 5 C1.34 4.67 0.68 4.34 0 4 C0 2.68 0 1.36 0 0 Z " fill="#9AC2D9" transform="translate(144,148)"/>
<path d="M0 0 C0.33 0 0.66 0 1 0 C1.36923077 5.53846154 1.36923077 5.53846154 -0.5 7.875 C-1.2425 8.431875 -1.2425 8.431875 -2 9 C-2.66 7.68 -3.32 6.36 -4 5 C-3.34 4.01 -2.68 3.02 -2 2 C-1.34 2 -0.68 2 0 2 C0 1.34 0 0.68 0 0 Z " fill="#191414" transform="translate(169,115)"/>
<path d="M0 0 C0.66 0 1.32 0 2 0 C5 5.625 5 5.625 5 9 C3.02 8.34 1.04 7.68 -1 7 C-0.67 4.69 -0.34 2.38 0 0 Z " fill="#93BDD8" transform="translate(76,80)"/>
<path d="M0 0 C0.66 1.32 1.32 2.64 2 4 C0.88625 3.979375 -0.2275 3.95875 -1.375 3.9375 C-4.83215921 3.73619282 -4.83215921 3.73619282 -7 5 C-7.66 4.34 -8.32 3.68 -9 3 C-9 2.34 -9 1.68 -9 1 C-6.04335481 -0.4783226 -3.25770263 -0.06032783 0 0 Z " fill="#242E38" transform="translate(93,65)"/>
<path d="M0 0 C2.4375 0.8125 2.4375 0.8125 5 2 C6.231394 5.69418201 5.64432764 8.2056261 5 12 C3.5393715 9.35261084 3 8.10551666 3 5 C2.34 4.67 1.68 4.34 1 4 C0.375 1.9375 0.375 1.9375 0 0 Z " fill="#13161C" transform="translate(97,10)"/>
<path d="M0 0 C0.99 0 1.98 0 3 0 C3.33 0.99 3.66 1.98 4 3 C2.375 4.5625 2.375 4.5625 0 6 C-3.25 5.6875 -3.25 5.6875 -6 5 C-5.01 4.67 -4.02 4.34 -3 4 C-3 3.34 -3 2.68 -3 2 C-2.34 2 -1.68 2 -1 2 C-0.67 1.34 -0.34 0.68 0 0 Z " fill="#1F171C" transform="translate(118,2)"/>
<path d="M0 0 C0.66 0 1.32 0 2 0 C2.33 0.99 2.66 1.98 3 3 C5.64 3.33 8.28 3.66 11 4 C11 4.33 11 4.66 11 5 C7.04 5 3.08 5 -1 5 C-1.33 5.66 -1.66 6.32 -2 7 C-1.125 1.125 -1.125 1.125 0 0 Z " fill="#10161F" transform="translate(158,185)"/>
<path d="M0 0 C0.33 1.32 0.66 2.64 1 4 C-3.455 4.495 -3.455 4.495 -8 5 C-8.33 4.34 -8.66 3.68 -9 3 C-6 2 -3 1 0 0 Z " fill="#90BFD8" transform="translate(125,111)"/>
<path d="M0 0 C1.65 0 3.3 0 5 0 C5.33 1.32 5.66 2.64 6 4 C4.02 4.99 4.02 4.99 2 6 C1.34 4.02 0.68 2.04 0 0 Z " fill="#201C18" transform="translate(85,83)"/>
<path d="M0 0 C-1.32 1.32 -2.64 2.64 -4 4 C-5.98 3.34 -7.96 2.68 -10 2 C-10 1.34 -10 0.68 -10 0 C-6.7169902 -1.6415049 -3.57454967 -0.51888624 0 0 Z " fill="#9BCFED" transform="translate(131,65)"/>
<path d="M0 0 C0.99 1.485 0.99 1.485 2 3 C2.99 2.01 3.98 1.02 5 0 C5.66 0.66 6.32 1.32 7 2 C6.34 3.32 5.68 4.64 5 6 C3.35 5.67 1.7 5.34 0 5 C0 3.35 0 1.7 0 0 Z " fill="#D9DBDA" transform="translate(170,56)"/>
<path d="M0 0 C0.33 0 0.66 0 1 0 C1.36552803 1.41377782 1.71695495 2.83120576 2.0625 4.25 C2.25972656 5.03890625 2.45695312 5.8278125 2.66015625 6.640625 C3.01497267 9.10394822 2.76877544 10.65604132 2 13 C-0.40385693 8.79325038 -1.45226612 5.86186074 -1 1 C-0.67 0.67 -0.34 0.34 0 0 Z " fill="#577183" transform="translate(103,14)"/>
<path d="M0 0 C0.33 0 0.66 0 1 0 C1.08142927 1.7492214 1.13938541 3.49954542 1.1875 5.25 C1.23970703 6.71179688 1.23970703 6.71179688 1.29296875 8.203125 C0.96075202 11.37468742 0.11327721 12.67040307 -2 15 C-2.27036084 9.72796354 -1.26305335 5.07476794 0 0 Z " fill="#1F2F3C" transform="translate(128,181)"/>
<path d="M0 0 C0.61875 0.639375 1.2375 1.27875 1.875 1.9375 C3.82597612 4.03883584 3.82597612 4.03883584 6 5 C5.34 6.32 4.68 7.64 4 9 C3.566875 8.54625 3.13375 8.0925 2.6875 7.625 C0.89201658 5.79975666 0.89201658 5.79975666 -2 4 C-1.34 2.68 -0.68 1.36 0 0 Z " fill="#1B262C" transform="translate(94,169)"/>
<path d="M0 0 C0.99 0 1.98 0 3 0 C6 4.22222222 6 4.22222222 6 7 C3.11562221 5.70700306 1.12780579 4.34058637 -1 2 C-0.67 1.34 -0.34 0.68 0 0 Z " fill="#182530" transform="translate(128,168)"/>
<path d="M0 0 C1.11375 0.3403125 1.11375 0.3403125 2.25 0.6875 C0.6 2.3375 -1.05 3.9875 -2.75 5.6875 C-4.07 4.6975 -5.39 3.7075 -6.75 2.6875 C-4.29511132 0.41445492 -3.41240272 -0.38777304 0 0 Z " fill="#14171B" transform="translate(79.75,146.3125)"/>
<path d="M0 0 C3 0 3 0 5 1 C0.61487125 4.31558515 -2.37458159 5.54996653 -8 6 C-5 4 -5 4 -2 4 C-1.34 2.68 -0.68 1.36 0 0 Z " fill="#100C0A" transform="translate(178,107)"/>
<path d="M0 0 C0.33 0 0.66 0 1 0 C1.33 1.65 1.66 3.3 2 5 C3.32 5 4.64 5 6 5 C6 5.99 6 6.98 6 8 C4.02 8.33 2.04 8.66 0 9 C0 6.03 0 3.06 0 0 Z " fill="#3A3738" transform="translate(109,37)"/>
<path d="M0 0 C2.64 1.65 5.28 3.3 8 5 C7.67 5.66 7.34 6.32 7 7 C4.9375 7.625 4.9375 7.625 3 8 C1.92474806 5.34771188 0.90543849 2.71631546 0 0 Z " fill="#9DC6E4" transform="translate(96,200)"/>
<path d="M0 0 C0.99 0.33 1.98 0.66 3 1 C2.67 2.65 2.34 4.3 2 6 C1.01 6 0.02 6 -1 6 C-1 5.34 -1 4.68 -1 4 C-1.66 3.67 -2.32 3.34 -3 3 C-2.01 2.01 -1.02 1.02 0 0 Z " fill="#91BFDC" transform="translate(130,198)"/>
<path d="M0 0 C0.75 1.625 0.75 1.625 1 4 C-0.9375 7.25 -0.9375 7.25 -3 10 C-4.32 9.34 -5.64 8.68 -7 8 C-6.401875 7.79375 -5.80375 7.5875 -5.1875 7.375 C-2.18981233 5.49073918 -1.38638224 3.18867916 0 0 Z " fill="#93B8D0" transform="translate(148,81)"/>
<path d="M0 0 C1.74627478 2.61941217 2.38722388 4.03824877 3 7 C2.01 7.66 1.02 8.32 0 9 C-1.36623674 6.26752652 -1.128426 4.01801098 -1 1 C-0.67 0.67 -0.34 0.34 0 0 Z " fill="#23313E" transform="translate(124,74)"/>
<path d="M0 0 C0.66 0.33 1.32 0.66 2 1 C1.67 1.99 1.34 2.98 1 4 C0.01 4 -0.98 4 -2 4 C-2.33 4.66 -2.66 5.32 -3 6 C-4.32 5.67 -5.64 5.34 -7 5 C-2.25 1.125 -2.25 1.125 0 0 Z " fill="#4F6A7B" transform="translate(52,70)"/>
<path d="M0 0 C0.99 0.33 1.98 0.66 3 1 C2.34 4.96 1.68 8.92 1 13 C0.67 13 0.34 13 0 13 C-0.19551338 11.39679026 -0.38111983 9.79237014 -0.5625 8.1875 C-0.71912109 6.84751953 -0.71912109 6.84751953 -0.87890625 5.48046875 C-1 3 -1 3 0 0 Z " fill="#AAD2F0" transform="translate(122,69)"/>
<path d="M0 0 C0 0.99 0 1.98 0 3 C-0.66 2.34 -1.32 1.68 -2 1 C-1.34 0.67 -0.68 0.34 0 0 Z M-5 2 C-3.68 2.33 -2.36 2.66 -1 3 C-1 3.66 -1 4.32 -1 5 C-0.34 5.33 0.32 5.66 1 6 C-0.65 6.33 -2.3 6.66 -4 7 C-4.33 5.35 -4.66 3.7 -5 2 Z " fill="#F2F4F1" transform="translate(53,56)"/>
<path d="M0 0 C1.65 0 3.3 0 5 0 C4.01 0.66 3.02 1.32 2 2 C1.505 2.86625 1.01 3.7325 0.5 4.625 C0.005 5.40875 -0.49 6.1925 -1 7 C-1.99 7 -2.98 7 -4 7 C-2.68 4.69 -1.36 2.38 0 0 Z " fill="#1E2B38" transform="translate(123,97)"/>
<path d="M0 0 C0.66 0.33 1.32 0.66 2 1 C3.87056791 1.2275015 5.74685958 1.40962811 7.625 1.5625 C8.62789062 1.64628906 9.63078125 1.73007813 10.6640625 1.81640625 C11.43492188 1.87699219 12.20578125 1.93757812 13 2 C13 2.33 13 2.66 13 3 C6.565 3.495 6.565 3.495 0 4 C0 2.68 0 1.36 0 0 Z " fill="#0E141B" transform="translate(54,187)"/>
<path d="M0 0 C0.33 0 0.66 0 1 0 C0.38461538 6.52307692 0.38461538 6.52307692 -1.5625 8.9375 C-2.036875 9.288125 -2.51125 9.63875 -3 10 C-3.23226952 6.59338044 -3.35720302 4.59016151 -1.5625 1.625 C-0.7890625 0.820625 -0.7890625 0.820625 0 0 Z " fill="#A4CBE2" transform="translate(93,166)"/>
<path d="M0 0 C1.65 0 3.3 0 5 0 C5.33 0.66 5.66 1.32 6 2 C3.03 2.66 0.06 3.32 -3 4 C-2.67 3.34 -2.34 2.68 -2 2 C-1.34 2 -0.68 2 0 2 C0 1.34 0 0.68 0 0 Z " fill="#251F27" transform="translate(119,165)"/>
<path d="M0 0 C2.31 0.33 4.62 0.66 7 1 C7 2.65 7 4.3 7 6 C6.401875 5.690625 5.80375 5.38125 5.1875 5.0625 C2.91043228 3.89790296 2.91043228 3.89790296 0 3 C0 2.01 0 1.02 0 0 Z " fill="#E6E4E5" transform="translate(49,112)"/>
<path d="M0 0 C2.475 0.99 2.475 0.99 5 2 C5 2.99 5 3.98 5 5 C3.125 5.625 3.125 5.625 1 6 C0.34 5.34 -0.32 4.68 -1 4 C-0.625 1.875 -0.625 1.875 0 0 Z " fill="#91BEDD" transform="translate(82,88)"/>
<path d="M0 0 C2.64 0 5.28 0 8 0 C7.34 1.32 6.68 2.64 6 4 C4.02 3.34 2.04 2.68 0 2 C0 1.34 0 0.68 0 0 Z " fill="#1D303C" transform="translate(132,65)"/>
<path d="M0 0 C0.66 1.98 1.32 3.96 2 6 C-1.65316671 4.75023244 -2.78065836 4.32901247 -5 1 C-2 0 -2 0 0 0 Z " fill="#272222" transform="translate(105,30)"/>
<path d="M0 0 C1.32 0.66 2.64 1.32 4 2 C3.34 3.65 2.68 5.3 2 7 C1.01 6.67 0.02 6.34 -1 6 C-0.67 4.02 -0.34 2.04 0 0 Z " fill="#1B181B" transform="translate(123,4)"/>
<path d="M0 0 C0.99 0.33 1.98 0.66 3 1 C2.67 2.65 2.34 4.3 2 6 C0.68 4.68 -0.64 3.36 -2 2 C-1.34 1.34 -0.68 0.68 0 0 Z " fill="#94BEDA" transform="translate(105,100)"/>
<path d="M0 0 C3.63 0.33 7.26 0.66 11 1 C11 1.33 11 1.66 11 2 C8.36 2 5.72 2 3 2 C2.67 2.99 2.34 3.98 2 5 C2 4.34 2 3.68 2 3 C1.01 2.67 0.02 2.34 -1 2 C-0.67 1.34 -0.34 0.68 0 0 Z " fill="#799DB7" transform="translate(129,89)"/>
<path d="M0 0 C2.8125 -0.25 2.8125 -0.25 6 0 C7.875 2 7.875 2 9 4 C4.545 3.01 4.545 3.01 0 2 C0 1.34 0 0.68 0 0 Z " fill="#A0C5DC" transform="translate(89,63)"/>
<path d="M0 0 C0.99 0.33 1.98 0.66 3 1 C1.75023244 4.65316671 1.32901247 5.78065836 -2 8 C-1.34 5.36 -0.68 2.72 0 0 Z " fill="#101821" transform="translate(131,191)"/>
<path d="M0 0 C1.2065625 0.0309375 1.2065625 0.0309375 2.4375 0.0625 C1.4475 0.5575 1.4475 0.5575 0.4375 1.0625 C0.1075 1.8875 -0.2225 2.7125 -0.5625 3.5625 C-1.5625 6.0625 -1.5625 6.0625 -3.5625 7.0625 C-3.60504356 5.06295254 -3.60330783 3.06208364 -3.5625 1.0625 C-2.5625 0.0625 -2.5625 0.0625 0 0 Z " fill="#7596AE" transform="translate(87.5625,145.9375)"/>
<path d="M0 0 C2.625 1.4375 2.625 1.4375 5 3 C4.01 3.495 4.01 3.495 3 4 C2.67 4.66 2.34 5.32 2 6 C2 5.01 2 4.02 2 3 C0.68 3.33 -0.64 3.66 -2 4 C-2 3.01 -2 2.02 -2 1 C-1.34 0.67 -0.68 0.34 0 0 Z " fill="#5E8095" transform="translate(174,70)"/>
<path d="M0 0 C1.98 0 3.96 0 6 0 C5.34 2.31 4.68 4.62 4 7 C3.566875 6.0409375 3.566875 6.0409375 3.125 5.0625 C2.17176549 2.84793921 2.17176549 2.84793921 0 2 C0 1.34 0 0.68 0 0 Z " fill="#789BB1" transform="translate(67,53)"/>
<path d="M0 0 C2 0 2 0 3.625 1.375 C5 3 5 3 5 5 C5.66 5.33 6.32 5.66 7 6 C6.34 6.66 5.68 7.32 5 8 C3 6 1 4 -1 2 C-0.67 1.34 -0.34 0.68 0 0 Z " fill="#E6E5E6" transform="translate(163,44)"/>
<path d="M0 0 C0.99 0.33 1.98 0.66 3 1 C3 2.65 3 4.3 3 6 C1.68 6 0.36 6 -1 6 C-0.67 4.02 -0.34 2.04 0 0 Z " fill="#2B2222" transform="translate(96,11)"/>
<path d="M0 0 C0 0.66 0 1.32 0 2 C0.66 2.66 1.32 3.32 2 4 C1.01 4.33 0.02 4.66 -1 5 C-3.6875 3.0625 -3.6875 3.0625 -6 1 C-4 0 -4 0 0 0 Z " fill="#2F282C" transform="translate(112,0)"/>
<path d="M0 0 C1.65 0.33 3.3 0.66 5 1 C5 1.66 5 2.32 5 3 C2.69 3 0.38 3 -2 3 C-1.34 2.01 -0.68 1.02 0 0 Z " fill="#EFF3F5" transform="translate(131,231)"/>
<path d="M0 0 C0.66 0 1.32 0 2 0 C2 1.98 2 3.96 2 6 C1.01 6 0.02 6 -1 6 C-1.625 4.125 -1.625 4.125 -2 2 C-1.34 1.34 -0.68 0.68 0 0 Z " fill="#9BCDED" transform="translate(93,98)"/>
<path d="M0 0 C2.31 0.33 4.62 0.66 7 1 C6.67 1.99 6.34 2.98 6 4 C4.35 3.67 2.7 3.34 1 3 C0.67 2.01 0.34 1.02 0 0 Z " fill="#D6EEF7" transform="translate(132,79)"/>
</svg>
