<?xml version="1.0" standalone="no"?>
<!DOCTYPE svg PUBLIC "-//W3C//DTD SVG 20010904//EN"
 "http://www.w3.org/TR/2001/REC-SVG-20010904/DTD/svg10.dtd">
<svg version="1.0" xmlns="http://www.w3.org/2000/svg"
 width="512.000000pt" height="512.000000pt" viewBox="0 0 512.000000 512.000000"
 preserveAspectRatio="xMidYMid meet">

<g transform="translate(0.000000,512.000000) scale(0.100000,-0.100000)"
fill="#000000" stroke="none">
<path d="M2355 4314 c-320 -48 -525 -121 -764 -269 -369 -230 -656 -609 -777
-1023 -54 -186 -64 -268 -64 -511 0 -265 15 -375 80 -574 128 -389 375 -714
715 -942 130 -87 305 -177 348 -179 30 -1 32 1 70 104 122 326 275 720 319
823 27 65 48 119 47 121 -2 1 -31 15 -64 31 -95 45 -192 148 -248 265 -116
242 -128 565 -32 870 69 218 229 459 398 601 l62 52 7 -139 c14 -304 116 -470
361 -588 267 -128 367 -267 367 -511 0 -169 -49 -315 -142 -420 -42 -48 -175
-141 -215 -151 -31 -8 -30 -13 36 -174 45 -107 145 -366 303 -783 l41 -109 31
6 c50 10 227 102 337 175 404 268 693 708 779 1181 25 144 29 506 5 639 -117
668 -589 1214 -1230 1423 -199 65 -292 80 -535 83 -113 2 -218 1 -235 -1z"/>
</g>
</svg>
